<?xml version="1.0" encoding="utf-8"?>
<!DOCTYPE svg PUBLIC "-//W3C//DTD SVG 1.0//EN" "http://www.w3.org/TR/2001/REC-SVG-20010904/DTD/svg10.dtd">
<svg xmlns="http://www.w3.org/2000/svg" xml:space="preserve" xmlns:xlink="http://www.w3.org/1999/xlink" width="164" height="164" viewBox="0 0 164 164">
<desc></desc>
<rect width="164" height="164" fill="#ffffff" cx="0" cy="0" />
<defs>
<rect id="p" width="4" height="4" />
</defs>
<g fill="#000000">
<use x="16" y="16" xlink:href="#p" />
<use x="20" y="16" xlink:href="#p" />
<use x="24" y="16" xlink:href="#p" />
<use x="28" y="16" xlink:href="#p" />
<use x="32" y="16" xlink:href="#p" />
<use x="36" y="16" xlink:href="#p" />
<use x="40" y="16" xlink:href="#p" />
<use x="52" y="16" xlink:href="#p" />
<use x="60" y="16" xlink:href="#p" />
<use x="72" y="16" xlink:href="#p" />
<use x="76" y="16" xlink:href="#p" />
<use x="80" y="16" xlink:href="#p" />
<use x="108" y="16" xlink:href="#p" />
<use x="112" y="16" xlink:href="#p" />
<use x="120" y="16" xlink:href="#p" />
<use x="124" y="16" xlink:href="#p" />
<use x="128" y="16" xlink:href="#p" />
<use x="132" y="16" xlink:href="#p" />
<use x="136" y="16" xlink:href="#p" />
<use x="140" y="16" xlink:href="#p" />
<use x="144" y="16" xlink:href="#p" />
<use x="16" y="20" xlink:href="#p" />
<use x="40" y="20" xlink:href="#p" />
<use x="52" y="20" xlink:href="#p" />
<use x="56" y="20" xlink:href="#p" />
<use x="84" y="20" xlink:href="#p" />
<use x="100" y="20" xlink:href="#p" />
<use x="108" y="20" xlink:href="#p" />
<use x="120" y="20" xlink:href="#p" />
<use x="144" y="20" xlink:href="#p" />
<use x="16" y="24" xlink:href="#p" />
<use x="24" y="24" xlink:href="#p" />
<use x="28" y="24" xlink:href="#p" />
<use x="32" y="24" xlink:href="#p" />
<use x="40" y="24" xlink:href="#p" />
<use x="52" y="24" xlink:href="#p" />
<use x="60" y="24" xlink:href="#p" />
<use x="64" y="24" xlink:href="#p" />
<use x="68" y="24" xlink:href="#p" />
<use x="80" y="24" xlink:href="#p" />
<use x="84" y="24" xlink:href="#p" />
<use x="88" y="24" xlink:href="#p" />
<use x="120" y="24" xlink:href="#p" />
<use x="128" y="24" xlink:href="#p" />
<use x="132" y="24" xlink:href="#p" />
<use x="136" y="24" xlink:href="#p" />
<use x="144" y="24" xlink:href="#p" />
<use x="16" y="28" xlink:href="#p" />
<use x="24" y="28" xlink:href="#p" />
<use x="28" y="28" xlink:href="#p" />
<use x="32" y="28" xlink:href="#p" />
<use x="40" y="28" xlink:href="#p" />
<use x="56" y="28" xlink:href="#p" />
<use x="60" y="28" xlink:href="#p" />
<use x="64" y="28" xlink:href="#p" />
<use x="72" y="28" xlink:href="#p" />
<use x="76" y="28" xlink:href="#p" />
<use x="80" y="28" xlink:href="#p" />
<use x="88" y="28" xlink:href="#p" />
<use x="104" y="28" xlink:href="#p" />
<use x="112" y="28" xlink:href="#p" />
<use x="120" y="28" xlink:href="#p" />
<use x="128" y="28" xlink:href="#p" />
<use x="132" y="28" xlink:href="#p" />
<use x="136" y="28" xlink:href="#p" />
<use x="144" y="28" xlink:href="#p" />
<use x="16" y="32" xlink:href="#p" />
<use x="24" y="32" xlink:href="#p" />
<use x="28" y="32" xlink:href="#p" />
<use x="32" y="32" xlink:href="#p" />
<use x="40" y="32" xlink:href="#p" />
<use x="48" y="32" xlink:href="#p" />
<use x="52" y="32" xlink:href="#p" />
<use x="56" y="32" xlink:href="#p" />
<use x="60" y="32" xlink:href="#p" />
<use x="64" y="32" xlink:href="#p" />
<use x="68" y="32" xlink:href="#p" />
<use x="72" y="32" xlink:href="#p" />
<use x="76" y="32" xlink:href="#p" />
<use x="84" y="32" xlink:href="#p" />
<use x="96" y="32" xlink:href="#p" />
<use x="100" y="32" xlink:href="#p" />
<use x="104" y="32" xlink:href="#p" />
<use x="108" y="32" xlink:href="#p" />
<use x="112" y="32" xlink:href="#p" />
<use x="120" y="32" xlink:href="#p" />
<use x="128" y="32" xlink:href="#p" />
<use x="132" y="32" xlink:href="#p" />
<use x="136" y="32" xlink:href="#p" />
<use x="144" y="32" xlink:href="#p" />
<use x="16" y="36" xlink:href="#p" />
<use x="40" y="36" xlink:href="#p" />
<use x="60" y="36" xlink:href="#p" />
<use x="64" y="36" xlink:href="#p" />
<use x="68" y="36" xlink:href="#p" />
<use x="72" y="36" xlink:href="#p" />
<use x="80" y="36" xlink:href="#p" />
<use x="84" y="36" xlink:href="#p" />
<use x="88" y="36" xlink:href="#p" />
<use x="92" y="36" xlink:href="#p" />
<use x="96" y="36" xlink:href="#p" />
<use x="100" y="36" xlink:href="#p" />
<use x="104" y="36" xlink:href="#p" />
<use x="108" y="36" xlink:href="#p" />
<use x="120" y="36" xlink:href="#p" />
<use x="144" y="36" xlink:href="#p" />
<use x="16" y="40" xlink:href="#p" />
<use x="20" y="40" xlink:href="#p" />
<use x="24" y="40" xlink:href="#p" />
<use x="28" y="40" xlink:href="#p" />
<use x="32" y="40" xlink:href="#p" />
<use x="36" y="40" xlink:href="#p" />
<use x="40" y="40" xlink:href="#p" />
<use x="48" y="40" xlink:href="#p" />
<use x="56" y="40" xlink:href="#p" />
<use x="64" y="40" xlink:href="#p" />
<use x="72" y="40" xlink:href="#p" />
<use x="80" y="40" xlink:href="#p" />
<use x="88" y="40" xlink:href="#p" />
<use x="96" y="40" xlink:href="#p" />
<use x="104" y="40" xlink:href="#p" />
<use x="112" y="40" xlink:href="#p" />
<use x="120" y="40" xlink:href="#p" />
<use x="124" y="40" xlink:href="#p" />
<use x="128" y="40" xlink:href="#p" />
<use x="132" y="40" xlink:href="#p" />
<use x="136" y="40" xlink:href="#p" />
<use x="140" y="40" xlink:href="#p" />
<use x="144" y="40" xlink:href="#p" />
<use x="48" y="44" xlink:href="#p" />
<use x="52" y="44" xlink:href="#p" />
<use x="56" y="44" xlink:href="#p" />
<use x="76" y="44" xlink:href="#p" />
<use x="84" y="44" xlink:href="#p" />
<use x="88" y="44" xlink:href="#p" />
<use x="92" y="44" xlink:href="#p" />
<use x="96" y="44" xlink:href="#p" />
<use x="104" y="44" xlink:href="#p" />
<use x="112" y="44" xlink:href="#p" />
<use x="24" y="48" xlink:href="#p" />
<use x="28" y="48" xlink:href="#p" />
<use x="40" y="48" xlink:href="#p" />
<use x="44" y="48" xlink:href="#p" />
<use x="48" y="48" xlink:href="#p" />
<use x="56" y="48" xlink:href="#p" />
<use x="68" y="48" xlink:href="#p" />
<use x="72" y="48" xlink:href="#p" />
<use x="76" y="48" xlink:href="#p" />
<use x="84" y="48" xlink:href="#p" />
<use x="88" y="48" xlink:href="#p" />
<use x="100" y="48" xlink:href="#p" />
<use x="104" y="48" xlink:href="#p" />
<use x="108" y="48" xlink:href="#p" />
<use x="116" y="48" xlink:href="#p" />
<use x="120" y="48" xlink:href="#p" />
<use x="128" y="48" xlink:href="#p" />
<use x="16" y="52" xlink:href="#p" />
<use x="20" y="52" xlink:href="#p" />
<use x="28" y="52" xlink:href="#p" />
<use x="32" y="52" xlink:href="#p" />
<use x="48" y="52" xlink:href="#p" />
<use x="52" y="52" xlink:href="#p" />
<use x="56" y="52" xlink:href="#p" />
<use x="64" y="52" xlink:href="#p" />
<use x="68" y="52" xlink:href="#p" />
<use x="88" y="52" xlink:href="#p" />
<use x="96" y="52" xlink:href="#p" />
<use x="100" y="52" xlink:href="#p" />
<use x="124" y="52" xlink:href="#p" />
<use x="144" y="52" xlink:href="#p" />
<use x="16" y="56" xlink:href="#p" />
<use x="20" y="56" xlink:href="#p" />
<use x="36" y="56" xlink:href="#p" />
<use x="40" y="56" xlink:href="#p" />
<use x="48" y="56" xlink:href="#p" />
<use x="68" y="56" xlink:href="#p" />
<use x="76" y="56" xlink:href="#p" />
<use x="84" y="56" xlink:href="#p" />
<use x="88" y="56" xlink:href="#p" />
<use x="96" y="56" xlink:href="#p" />
<use x="108" y="56" xlink:href="#p" />
<use x="112" y="56" xlink:href="#p" />
<use x="24" y="60" xlink:href="#p" />
<use x="32" y="60" xlink:href="#p" />
<use x="44" y="60" xlink:href="#p" />
<use x="48" y="60" xlink:href="#p" />
<use x="52" y="60" xlink:href="#p" />
<use x="76" y="60" xlink:href="#p" />
<use x="80" y="60" xlink:href="#p" />
<use x="96" y="60" xlink:href="#p" />
<use x="108" y="60" xlink:href="#p" />
<use x="120" y="60" xlink:href="#p" />
<use x="132" y="60" xlink:href="#p" />
<use x="16" y="64" xlink:href="#p" />
<use x="20" y="64" xlink:href="#p" />
<use x="24" y="64" xlink:href="#p" />
<use x="36" y="64" xlink:href="#p" />
<use x="40" y="64" xlink:href="#p" />
<use x="56" y="64" xlink:href="#p" />
<use x="72" y="64" xlink:href="#p" />
<use x="76" y="64" xlink:href="#p" />
<use x="80" y="64" xlink:href="#p" />
<use x="84" y="64" xlink:href="#p" />
<use x="88" y="64" xlink:href="#p" />
<use x="96" y="64" xlink:href="#p" />
<use x="100" y="64" xlink:href="#p" />
<use x="108" y="64" xlink:href="#p" />
<use x="120" y="64" xlink:href="#p" />
<use x="132" y="64" xlink:href="#p" />
<use x="140" y="64" xlink:href="#p" />
<use x="20" y="68" xlink:href="#p" />
<use x="24" y="68" xlink:href="#p" />
<use x="36" y="68" xlink:href="#p" />
<use x="44" y="68" xlink:href="#p" />
<use x="48" y="68" xlink:href="#p" />
<use x="56" y="68" xlink:href="#p" />
<use x="68" y="68" xlink:href="#p" />
<use x="72" y="68" xlink:href="#p" />
<use x="76" y="68" xlink:href="#p" />
<use x="88" y="68" xlink:href="#p" />
<use x="92" y="68" xlink:href="#p" />
<use x="100" y="68" xlink:href="#p" />
<use x="104" y="68" xlink:href="#p" />
<use x="116" y="68" xlink:href="#p" />
<use x="120" y="68" xlink:href="#p" />
<use x="132" y="68" xlink:href="#p" />
<use x="136" y="68" xlink:href="#p" />
<use x="144" y="68" xlink:href="#p" />
<use x="16" y="72" xlink:href="#p" />
<use x="20" y="72" xlink:href="#p" />
<use x="24" y="72" xlink:href="#p" />
<use x="28" y="72" xlink:href="#p" />
<use x="32" y="72" xlink:href="#p" />
<use x="36" y="72" xlink:href="#p" />
<use x="40" y="72" xlink:href="#p" />
<use x="44" y="72" xlink:href="#p" />
<use x="56" y="72" xlink:href="#p" />
<use x="60" y="72" xlink:href="#p" />
<use x="72" y="72" xlink:href="#p" />
<use x="76" y="72" xlink:href="#p" />
<use x="80" y="72" xlink:href="#p" />
<use x="84" y="72" xlink:href="#p" />
<use x="96" y="72" xlink:href="#p" />
<use x="100" y="72" xlink:href="#p" />
<use x="104" y="72" xlink:href="#p" />
<use x="108" y="72" xlink:href="#p" />
<use x="112" y="72" xlink:href="#p" />
<use x="116" y="72" xlink:href="#p" />
<use x="124" y="72" xlink:href="#p" />
<use x="128" y="72" xlink:href="#p" />
<use x="140" y="72" xlink:href="#p" />
<use x="144" y="72" xlink:href="#p" />
<use x="16" y="76" xlink:href="#p" />
<use x="28" y="76" xlink:href="#p" />
<use x="64" y="76" xlink:href="#p" />
<use x="68" y="76" xlink:href="#p" />
<use x="84" y="76" xlink:href="#p" />
<use x="100" y="76" xlink:href="#p" />
<use x="108" y="76" xlink:href="#p" />
<use x="112" y="76" xlink:href="#p" />
<use x="116" y="76" xlink:href="#p" />
<use x="120" y="76" xlink:href="#p" />
<use x="124" y="76" xlink:href="#p" />
<use x="136" y="76" xlink:href="#p" />
<use x="144" y="76" xlink:href="#p" />
<use x="20" y="80" xlink:href="#p" />
<use x="24" y="80" xlink:href="#p" />
<use x="28" y="80" xlink:href="#p" />
<use x="40" y="80" xlink:href="#p" />
<use x="60" y="80" xlink:href="#p" />
<use x="68" y="80" xlink:href="#p" />
<use x="72" y="80" xlink:href="#p" />
<use x="88" y="80" xlink:href="#p" />
<use x="108" y="80" xlink:href="#p" />
<use x="112" y="80" xlink:href="#p" />
<use x="132" y="80" xlink:href="#p" />
<use x="140" y="80" xlink:href="#p" />
<use x="144" y="80" xlink:href="#p" />
<use x="16" y="84" xlink:href="#p" />
<use x="20" y="84" xlink:href="#p" />
<use x="56" y="84" xlink:href="#p" />
<use x="60" y="84" xlink:href="#p" />
<use x="72" y="84" xlink:href="#p" />
<use x="80" y="84" xlink:href="#p" />
<use x="84" y="84" xlink:href="#p" />
<use x="92" y="84" xlink:href="#p" />
<use x="100" y="84" xlink:href="#p" />
<use x="104" y="84" xlink:href="#p" />
<use x="116" y="84" xlink:href="#p" />
<use x="124" y="84" xlink:href="#p" />
<use x="128" y="84" xlink:href="#p" />
<use x="16" y="88" xlink:href="#p" />
<use x="32" y="88" xlink:href="#p" />
<use x="36" y="88" xlink:href="#p" />
<use x="40" y="88" xlink:href="#p" />
<use x="44" y="88" xlink:href="#p" />
<use x="48" y="88" xlink:href="#p" />
<use x="60" y="88" xlink:href="#p" />
<use x="64" y="88" xlink:href="#p" />
<use x="92" y="88" xlink:href="#p" />
<use x="96" y="88" xlink:href="#p" />
<use x="108" y="88" xlink:href="#p" />
<use x="112" y="88" xlink:href="#p" />
<use x="116" y="88" xlink:href="#p" />
<use x="120" y="88" xlink:href="#p" />
<use x="128" y="88" xlink:href="#p" />
<use x="132" y="88" xlink:href="#p" />
<use x="144" y="88" xlink:href="#p" />
<use x="16" y="92" xlink:href="#p" />
<use x="20" y="92" xlink:href="#p" />
<use x="24" y="92" xlink:href="#p" />
<use x="28" y="92" xlink:href="#p" />
<use x="36" y="92" xlink:href="#p" />
<use x="44" y="92" xlink:href="#p" />
<use x="48" y="92" xlink:href="#p" />
<use x="52" y="92" xlink:href="#p" />
<use x="60" y="92" xlink:href="#p" />
<use x="64" y="92" xlink:href="#p" />
<use x="72" y="92" xlink:href="#p" />
<use x="76" y="92" xlink:href="#p" />
<use x="80" y="92" xlink:href="#p" />
<use x="88" y="92" xlink:href="#p" />
<use x="100" y="92" xlink:href="#p" />
<use x="104" y="92" xlink:href="#p" />
<use x="108" y="92" xlink:href="#p" />
<use x="112" y="92" xlink:href="#p" />
<use x="140" y="92" xlink:href="#p" />
<use x="144" y="92" xlink:href="#p" />
<use x="20" y="96" xlink:href="#p" />
<use x="24" y="96" xlink:href="#p" />
<use x="28" y="96" xlink:href="#p" />
<use x="40" y="96" xlink:href="#p" />
<use x="44" y="96" xlink:href="#p" />
<use x="52" y="96" xlink:href="#p" />
<use x="56" y="96" xlink:href="#p" />
<use x="64" y="96" xlink:href="#p" />
<use x="72" y="96" xlink:href="#p" />
<use x="76" y="96" xlink:href="#p" />
<use x="80" y="96" xlink:href="#p" />
<use x="88" y="96" xlink:href="#p" />
<use x="96" y="96" xlink:href="#p" />
<use x="104" y="96" xlink:href="#p" />
<use x="108" y="96" xlink:href="#p" />
<use x="112" y="96" xlink:href="#p" />
<use x="120" y="96" xlink:href="#p" />
<use x="128" y="96" xlink:href="#p" />
<use x="136" y="96" xlink:href="#p" />
<use x="140" y="96" xlink:href="#p" />
<use x="144" y="96" xlink:href="#p" />
<use x="16" y="100" xlink:href="#p" />
<use x="20" y="100" xlink:href="#p" />
<use x="24" y="100" xlink:href="#p" />
<use x="32" y="100" xlink:href="#p" />
<use x="44" y="100" xlink:href="#p" />
<use x="48" y="100" xlink:href="#p" />
<use x="52" y="100" xlink:href="#p" />
<use x="60" y="100" xlink:href="#p" />
<use x="76" y="100" xlink:href="#p" />
<use x="96" y="100" xlink:href="#p" />
<use x="100" y="100" xlink:href="#p" />
<use x="104" y="100" xlink:href="#p" />
<use x="112" y="100" xlink:href="#p" />
<use x="124" y="100" xlink:href="#p" />
<use x="136" y="100" xlink:href="#p" />
<use x="140" y="100" xlink:href="#p" />
<use x="40" y="104" xlink:href="#p" />
<use x="44" y="104" xlink:href="#p" />
<use x="52" y="104" xlink:href="#p" />
<use x="60" y="104" xlink:href="#p" />
<use x="64" y="104" xlink:href="#p" />
<use x="72" y="104" xlink:href="#p" />
<use x="76" y="104" xlink:href="#p" />
<use x="80" y="104" xlink:href="#p" />
<use x="84" y="104" xlink:href="#p" />
<use x="88" y="104" xlink:href="#p" />
<use x="96" y="104" xlink:href="#p" />
<use x="108" y="104" xlink:href="#p" />
<use x="112" y="104" xlink:href="#p" />
<use x="116" y="104" xlink:href="#p" />
<use x="124" y="104" xlink:href="#p" />
<use x="128" y="104" xlink:href="#p" />
<use x="132" y="104" xlink:href="#p" />
<use x="140" y="104" xlink:href="#p" />
<use x="144" y="104" xlink:href="#p" />
<use x="20" y="108" xlink:href="#p" />
<use x="24" y="108" xlink:href="#p" />
<use x="28" y="108" xlink:href="#p" />
<use x="32" y="108" xlink:href="#p" />
<use x="36" y="108" xlink:href="#p" />
<use x="44" y="108" xlink:href="#p" />
<use x="60" y="108" xlink:href="#p" />
<use x="64" y="108" xlink:href="#p" />
<use x="72" y="108" xlink:href="#p" />
<use x="96" y="108" xlink:href="#p" />
<use x="100" y="108" xlink:href="#p" />
<use x="116" y="108" xlink:href="#p" />
<use x="128" y="108" xlink:href="#p" />
<use x="136" y="108" xlink:href="#p" />
<use x="144" y="108" xlink:href="#p" />
<use x="16" y="112" xlink:href="#p" />
<use x="24" y="112" xlink:href="#p" />
<use x="28" y="112" xlink:href="#p" />
<use x="40" y="112" xlink:href="#p" />
<use x="44" y="112" xlink:href="#p" />
<use x="48" y="112" xlink:href="#p" />
<use x="56" y="112" xlink:href="#p" />
<use x="64" y="112" xlink:href="#p" />
<use x="68" y="112" xlink:href="#p" />
<use x="72" y="112" xlink:href="#p" />
<use x="88" y="112" xlink:href="#p" />
<use x="92" y="112" xlink:href="#p" />
<use x="104" y="112" xlink:href="#p" />
<use x="112" y="112" xlink:href="#p" />
<use x="116" y="112" xlink:href="#p" />
<use x="120" y="112" xlink:href="#p" />
<use x="124" y="112" xlink:href="#p" />
<use x="128" y="112" xlink:href="#p" />
<use x="136" y="112" xlink:href="#p" />
<use x="48" y="116" xlink:href="#p" />
<use x="60" y="116" xlink:href="#p" />
<use x="64" y="116" xlink:href="#p" />
<use x="76" y="116" xlink:href="#p" />
<use x="80" y="116" xlink:href="#p" />
<use x="100" y="116" xlink:href="#p" />
<use x="112" y="116" xlink:href="#p" />
<use x="128" y="116" xlink:href="#p" />
<use x="132" y="116" xlink:href="#p" />
<use x="140" y="116" xlink:href="#p" />
<use x="16" y="120" xlink:href="#p" />
<use x="20" y="120" xlink:href="#p" />
<use x="24" y="120" xlink:href="#p" />
<use x="28" y="120" xlink:href="#p" />
<use x="32" y="120" xlink:href="#p" />
<use x="36" y="120" xlink:href="#p" />
<use x="40" y="120" xlink:href="#p" />
<use x="48" y="120" xlink:href="#p" />
<use x="60" y="120" xlink:href="#p" />
<use x="64" y="120" xlink:href="#p" />
<use x="76" y="120" xlink:href="#p" />
<use x="88" y="120" xlink:href="#p" />
<use x="100" y="120" xlink:href="#p" />
<use x="108" y="120" xlink:href="#p" />
<use x="112" y="120" xlink:href="#p" />
<use x="120" y="120" xlink:href="#p" />
<use x="128" y="120" xlink:href="#p" />
<use x="132" y="120" xlink:href="#p" />
<use x="136" y="120" xlink:href="#p" />
<use x="140" y="120" xlink:href="#p" />
<use x="16" y="124" xlink:href="#p" />
<use x="40" y="124" xlink:href="#p" />
<use x="52" y="124" xlink:href="#p" />
<use x="60" y="124" xlink:href="#p" />
<use x="76" y="124" xlink:href="#p" />
<use x="84" y="124" xlink:href="#p" />
<use x="92" y="124" xlink:href="#p" />
<use x="108" y="124" xlink:href="#p" />
<use x="112" y="124" xlink:href="#p" />
<use x="128" y="124" xlink:href="#p" />
<use x="144" y="124" xlink:href="#p" />
<use x="16" y="128" xlink:href="#p" />
<use x="24" y="128" xlink:href="#p" />
<use x="28" y="128" xlink:href="#p" />
<use x="32" y="128" xlink:href="#p" />
<use x="40" y="128" xlink:href="#p" />
<use x="56" y="128" xlink:href="#p" />
<use x="60" y="128" xlink:href="#p" />
<use x="64" y="128" xlink:href="#p" />
<use x="68" y="128" xlink:href="#p" />
<use x="72" y="128" xlink:href="#p" />
<use x="76" y="128" xlink:href="#p" />
<use x="80" y="128" xlink:href="#p" />
<use x="92" y="128" xlink:href="#p" />
<use x="96" y="128" xlink:href="#p" />
<use x="104" y="128" xlink:href="#p" />
<use x="112" y="128" xlink:href="#p" />
<use x="116" y="128" xlink:href="#p" />
<use x="120" y="128" xlink:href="#p" />
<use x="124" y="128" xlink:href="#p" />
<use x="128" y="128" xlink:href="#p" />
<use x="132" y="128" xlink:href="#p" />
<use x="140" y="128" xlink:href="#p" />
<use x="144" y="128" xlink:href="#p" />
<use x="16" y="132" xlink:href="#p" />
<use x="24" y="132" xlink:href="#p" />
<use x="28" y="132" xlink:href="#p" />
<use x="32" y="132" xlink:href="#p" />
<use x="40" y="132" xlink:href="#p" />
<use x="48" y="132" xlink:href="#p" />
<use x="56" y="132" xlink:href="#p" />
<use x="60" y="132" xlink:href="#p" />
<use x="64" y="132" xlink:href="#p" />
<use x="84" y="132" xlink:href="#p" />
<use x="88" y="132" xlink:href="#p" />
<use x="92" y="132" xlink:href="#p" />
<use x="100" y="132" xlink:href="#p" />
<use x="104" y="132" xlink:href="#p" />
<use x="108" y="132" xlink:href="#p" />
<use x="120" y="132" xlink:href="#p" />
<use x="128" y="132" xlink:href="#p" />
<use x="132" y="132" xlink:href="#p" />
<use x="136" y="132" xlink:href="#p" />
<use x="140" y="132" xlink:href="#p" />
<use x="16" y="136" xlink:href="#p" />
<use x="24" y="136" xlink:href="#p" />
<use x="28" y="136" xlink:href="#p" />
<use x="32" y="136" xlink:href="#p" />
<use x="40" y="136" xlink:href="#p" />
<use x="48" y="136" xlink:href="#p" />
<use x="56" y="136" xlink:href="#p" />
<use x="64" y="136" xlink:href="#p" />
<use x="68" y="136" xlink:href="#p" />
<use x="80" y="136" xlink:href="#p" />
<use x="88" y="136" xlink:href="#p" />
<use x="100" y="136" xlink:href="#p" />
<use x="104" y="136" xlink:href="#p" />
<use x="112" y="136" xlink:href="#p" />
<use x="124" y="136" xlink:href="#p" />
<use x="16" y="140" xlink:href="#p" />
<use x="40" y="140" xlink:href="#p" />
<use x="52" y="140" xlink:href="#p" />
<use x="64" y="140" xlink:href="#p" />
<use x="80" y="140" xlink:href="#p" />
<use x="92" y="140" xlink:href="#p" />
<use x="100" y="140" xlink:href="#p" />
<use x="104" y="140" xlink:href="#p" />
<use x="108" y="140" xlink:href="#p" />
<use x="112" y="140" xlink:href="#p" />
<use x="120" y="140" xlink:href="#p" />
<use x="124" y="140" xlink:href="#p" />
<use x="136" y="140" xlink:href="#p" />
<use x="16" y="144" xlink:href="#p" />
<use x="20" y="144" xlink:href="#p" />
<use x="24" y="144" xlink:href="#p" />
<use x="28" y="144" xlink:href="#p" />
<use x="32" y="144" xlink:href="#p" />
<use x="36" y="144" xlink:href="#p" />
<use x="40" y="144" xlink:href="#p" />
<use x="52" y="144" xlink:href="#p" />
<use x="76" y="144" xlink:href="#p" />
<use x="84" y="144" xlink:href="#p" />
<use x="100" y="144" xlink:href="#p" />
<use x="112" y="144" xlink:href="#p" />
<use x="120" y="144" xlink:href="#p" />
<use x="128" y="144" xlink:href="#p" />
<use x="140" y="144" xlink:href="#p" />
</g>
</svg>