<?xml version="1.0" encoding="UTF-8" standalone="no"?>
<!-- Generator: Adobe Illustrator 16.0.0, SVG Export Plug-In . SVG Version: 6.00 Build 0)  -->

<svg
   xmlns:dc="http://purl.org/dc/elements/1.1/"
   xmlns:cc="http://creativecommons.org/ns#"
   xmlns:rdf="http://www.w3.org/1999/02/22-rdf-syntax-ns#"
   xmlns:svg="http://www.w3.org/2000/svg"
   xmlns="http://www.w3.org/2000/svg"
   xmlns:sodipodi="http://sodipodi.sourceforge.net/DTD/sodipodi-0.dtd"
   xmlns:inkscape="http://www.inkscape.org/namespaces/inkscape"
   version="1.1"
   id="Capa_1"
   x="0px"
   y="0px"
   width="512px"
   height="512px"
   viewBox="0 0 97.053 97.054"
   style="enable-background:new 0 0 97.053 97.054;"
   xml:space="preserve"
   sodipodi:docname="lang-blue.svg"
   inkscape:version="0.92.1 r15371"><metadata
     id="metadata4530"><rdf:RDF><cc:Work
         rdf:about=""><dc:format>image/svg+xml</dc:format><dc:type
           rdf:resource="http://purl.org/dc/dcmitype/StillImage" /><dc:title></dc:title></cc:Work></rdf:RDF></metadata><defs
     id="defs4528" /><sodipodi:namedview
     pagecolor="#ffffff"
     bordercolor="#666666"
     borderopacity="1"
     objecttolerance="10"
     gridtolerance="10"
     guidetolerance="10"
     inkscape:pageopacity="0"
     inkscape:pageshadow="2"
     inkscape:window-width="1920"
     inkscape:window-height="1001"
     id="namedview4526"
     showgrid="false"
     inkscape:zoom="1.578125"
     inkscape:cx="256"
     inkscape:cy="256"
     inkscape:window-x="-9"
     inkscape:window-y="-9"
     inkscape:window-maximized="1"
     inkscape:current-layer="Capa_1" /><g
     style="fill:#6a807f;fill-opacity:1"
     id="g4491"><path
       inkscape:connector-curvature="0"
       style="fill:#6a807f;fill-opacity:1"
       id="path4485"
       d="m 14.197,52.51 c 0.433,0.271 0.975,0.307 1.438,0.089 l 9.077,-4.263 c 0.179,14.207 -8.423,23.497 -10.149,25.214 -0.406,0.403 -0.547,1.005 -0.361,1.547 l 1.242,3.639 c 0.169,0.495 0.583,0.867 1.094,0.98 0.108,0.023 0.217,0.036 0.325,0.036 0.403,0 0.795,-0.163 1.081,-0.46 3.204,-3.331 6.341,-7.979 8.609,-12.753 l 10.668,4.317 c 0.757,0.304 1.618,-0.048 1.94,-0.797 l 2.007,-4.658 c 0.16,-0.371 0.164,-0.79 0.01,-1.163 -0.153,-0.374 -0.451,-0.669 -0.825,-0.82 L 29.262,58.93 v 0 c 0.652,-2.444 2.16,-8.678 2.083,-13.75 l 8.165,-3.97 c 0.516,-0.251 0.843,-0.773 0.844,-1.347 l 0.007,-4.911 c 0,-0.515 -0.263,-0.994 -0.698,-1.27 -0.435,-0.276 -0.981,-0.308 -1.446,-0.087 l -23.89,11.368 c -0.525,0.25 -0.858,0.781 -0.855,1.362 l 0.026,4.925 c 0.003,0.512 0.266,0.986 0.699,1.26 z" /><polygon
       style="fill:#6a807f;fill-opacity:1"
       id="polygon4487"
       points="68.978,46.284 65.514,60.022 72.592,63.068 " /><path
       inkscape:connector-curvature="0"
       style="fill:#6a807f;fill-opacity:1"
       id="path4489"
       d="M 95.792,42.042 V 2.674 c 0,-0.9 -0.453,-1.741 -1.207,-2.235 -0.754,-0.496 -1.705,-0.576 -2.529,-0.22 L 48.56,19.041 V 19.04 L 4.988,0.816 C 4.163,0.459 3.212,0.541 2.458,1.035 1.705,1.529 1.252,2.37 1.252,3.271 v 37.925 c 0,0.027 -0.011,0.051 -0.011,0.078 v 51.911 c 0,0.9 0.453,1.741 1.206,2.235 0.443,0.291 0.954,0.438 1.468,0.438 0.36,0 0.722,-0.073 1.062,-0.22 l 43.574,-18.855 43.526,20.05 c 0.34,0.146 0.702,0.22 1.062,0.22 0.514,0 1.025,-0.148 1.468,-0.439 0.753,-0.494 1.206,-1.334 1.206,-2.234 V 42.466 c 10e-4,-0.113 -0.008,-0.26 -0.021,-0.424 z M 48.534,70.964 6.59,89.113 V 43.03 L 48.568,24.865 Z m 34.521,12.111 c -0.275,0.236 -0.623,0.359 -0.973,0.359 -0.201,0 -0.402,-0.04 -0.593,-0.122 l -3.955,-1.701 c -0.437,-0.188 -0.758,-0.57 -0.866,-1.033 L 74.361,70.824 63.845,66.302 61.887,73.1 c -0.118,0.414 -0.41,0.756 -0.799,0.94 -0.39,0.184 -0.838,0.192 -1.234,0.021 l -4.23,-1.82 C 54.923,71.94 54.561,71.161 54.779,70.43 L 64.796,37.166 c 0.123,-0.409 0.416,-0.747 0.803,-0.927 0.387,-0.18 0.832,-0.187 1.227,-0.018 L 72,38.446 c 0.428,0.184 0.748,0.557 0.861,1.009 l 10.677,42.11 c 0.138,0.554 -0.048,1.139 -0.483,1.51 z M 90.442,35.979 55.528,21.854 90.442,6.746 Z" /></g><g
     id="g4495" /><g
     id="g4497" /><g
     id="g4499" /><g
     id="g4501" /><g
     id="g4503" /><g
     id="g4505" /><g
     id="g4507" /><g
     id="g4509" /><g
     id="g4511" /><g
     id="g4513" /><g
     id="g4515" /><g
     id="g4517" /><g
     id="g4519" /><g
     id="g4521" /><g
     id="g4523" /></svg>