<?xml version="1.0" encoding="utf-8"?>
<!-- Generator: Adobe Illustrator 16.0.0, SVG Export Plug-In . SVG Version: 6.00 Build 0)  -->
<svg version="1.2" baseProfile="tiny" id="originalPlan"
	 xmlns="http://www.w3.org/2000/svg" xmlns:xlink="http://www.w3.org/1999/xlink" x="0px" y="0px" width="1398px" height="640px"
	 viewBox="0 0 1398 640" xml:space="preserve">
<path fill="#FFFFFF" stroke="#000000" stroke-miterlimit="10" d="M418.712,11.448V170.94H17.899V630h1366.092V11.448H418.712z
	 M901.354,308.242v181.685v65.181H678.062V326.473L504.13,257.285l7.18-18.047l173.467,69.004h204.096V51.667h12.48V308.242z"/>
<g>
	<path fill="#D0D0D0" d="M1061.569,331.947h-3.293v-12.202h-9.927v12.202h-3.332v-26.719h3.332v11.465h9.927v-11.465h3.293V331.947z
		"/>
	<path fill="#D0D0D0" d="M1077.424,330.019c-1.122,1.648-3.086,2.349-5.297,2.349c-3.751,0-6.098-1.928-6.098-5.855
		c0-4.348,2.347-6.381,7.922-6.381c0.947,0,2.384,0.104,3.366,0.245v-2.561c0-3.085-1.157-4.417-3.786-4.417
		c-2.525,0-3.928,0.982-3.928,4.137h-2.945c0-4.734,2.279-6.802,7.012-6.802c4.244,0,6.732,1.787,6.732,6.908v14.306h-2.873
		L1077.424,330.019z M1077.317,322.831c-0.946-0.141-2.419-0.247-3.26-0.247c-3.541,0-4.803,1.194-4.803,3.646
		c0,2.316,1.188,3.472,3.575,3.472c2.383,0,4.487-1.542,4.487-4.628V322.831z"/>
	<path fill="#D0D0D0" d="M1091.312,332.087c-5.225,0.526-6.347-1.542-6.347-6.767v-20.443h3.227v20.619
		c0,3.331,0.631,3.821,3.12,3.751V332.087z"/>
	<path fill="#D0D0D0" d="M1101.096,332.087c-5.225,0.526-6.349-1.542-6.349-6.767v-20.443h3.227v20.619
		c0,3.331,0.634,3.821,3.122,3.751V332.087z"/>
	<path fill="#D0D0D0" d="M1116.212,311.155l0.176,1.683c0.911-1.298,2.733-2.104,5.259-2.104c4.242,0,6.313,2.805,6.313,8.029v5.75
		c0,5.644-2.947,7.854-6.627,7.854c-2.036,0-3.753-0.666-4.7-1.788v8.135h-3.226v-27.559H1116.212z M1116.632,324.968
		c0,3.367,1.755,4.562,4.033,4.562c2.491,0,4.067-1.335,4.067-5.19v-5.645c0-3.471-1.193-5.121-3.997-5.121
		c-2.489,0-4.104,1.369-4.104,4.174V324.968z"/>
	<path fill="#D0D0D0" d="M1135.184,311.155l0.282,2.453c0.841-1.508,2.701-2.84,5.013-2.84c0.354,0,0.736,0.035,1.019,0.07v3.332
		c-0.387-0.069-0.771-0.104-1.299-0.104c-2.56,0-4.593,1.542-4.593,4.944v12.938h-3.226v-20.792H1135.184z"/>
	<path fill="#D0D0D0" d="M1147.951,307.296h-3.297v-3.401h3.297V307.296z M1147.915,331.947h-3.227v-20.792h3.227V331.947z"/>
	<path fill="#D0D0D0" d="M1155.7,311.155l0.175,1.576c1.018-1.296,2.735-1.998,4.944-1.998c4.84,0,6.488,2.593,6.488,7.468v13.745
		h-3.228v-13.465c0-3.4-0.91-4.909-3.928-4.909c-2.419,0-4.031,1.403-4.031,4.207v14.167h-3.226v-20.792H1155.7z"/>
	<path fill="#D0D0D0" d="M1185.965,325.18v0.245c0,4.56-2.104,6.942-7.191,6.942c-4.942,0-7.255-2.277-7.255-8.028v-5.645
		c0-5.715,2.453-7.96,7.363-7.96c4.942,0,7.013,2.279,7.013,6.732v0.349h-3.12V317.5c0-2.524-0.947-3.892-3.893-3.892
		c-3.017,0-4.14,1.333-4.14,5.049v5.682c0,3.611,0.983,5.19,4.069,5.19c3.05,0,4.031-1.51,4.031-4.068v-0.281H1185.965z"/>
	<path fill="#D0D0D0" d="M1193.365,307.296h-3.294v-3.401h3.294V307.296z M1193.331,331.947h-3.228v-20.792h3.228V331.947z"/>
	<path fill="#D0D0D0" d="M1201.117,311.155l0.174,1.683c0.915-1.298,2.737-2.104,5.261-2.104c4.243,0,6.313,2.805,6.313,8.029v5.75
		c0,5.644-2.947,7.854-6.63,7.854c-2.032,0-3.749-0.666-4.698-1.788v8.135h-3.225v-27.559H1201.117z M1201.537,324.968
		c0,3.367,1.754,4.562,4.033,4.562c2.489,0,4.069-1.335,4.069-5.19v-5.645c0-3.471-1.195-5.121-4.001-5.121
		c-2.487,0-4.102,1.369-4.102,4.174V324.968z"/>
	<path fill="#D0D0D0" d="M1228.015,330.019c-1.123,1.648-3.088,2.349-5.297,2.349c-3.751,0-6.1-1.928-6.1-5.855
		c0-4.348,2.349-6.381,7.924-6.381c0.947,0,2.384,0.104,3.365,0.245v-2.561c0-3.085-1.156-4.417-3.787-4.417
		c-2.523,0-3.927,0.982-3.927,4.137h-2.944c0-4.734,2.279-6.802,7.013-6.802c4.242,0,6.732,1.787,6.732,6.908v14.306h-2.874
		L1228.015,330.019z M1227.907,322.831c-0.946-0.141-2.418-0.247-3.259-0.247c-3.543,0-4.805,1.194-4.805,3.646
		c0,2.316,1.192,3.472,3.575,3.472c2.385,0,4.488-1.542,4.488-4.628V322.831z"/>
	<path fill="#D0D0D0" d="M1241.903,332.087c-5.225,0.526-6.348-1.542-6.348-6.767v-20.443h3.226v20.619
		c0,3.331,0.631,3.821,3.122,3.751V332.087z"/>
</g>
<g>
	<path fill="#D0D0D0" d="M755.302,595.676v0.456c-0.106,5.227-2.277,8.064-7.995,8.064c-6.382,0-8.38-3.366-8.38-9.467v-8.519
		c0-6.208,2.068-9.574,8.38-9.574c5.472,0,7.961,2.77,7.961,8.03v0.316h-3.505v-0.388c0-3.225-1.404-4.837-4.456-4.837
		c-4.241,0-4.909,2.524-4.909,6.452v8.381c0,4.031,0.595,6.486,4.909,6.486c3.295,0,4.383-1.51,4.522-4.909v-0.493H755.302z"/>
	<path fill="#D0D0D0" d="M773.397,590.559v5.645c0,5.855-2.278,7.993-7.293,7.993s-7.292-2.138-7.292-7.993v-5.645
		c0-5.857,2.277-7.994,7.292-7.994S773.397,584.701,773.397,590.559z M762.037,596.169c0,4.032,1.016,5.189,4.067,5.189
		c3.016,0,4.034-1.157,4.034-5.189v-5.576c0-4.033-1.019-5.189-4.034-5.189c-3.052,0-4.067,1.156-4.067,5.189V596.169z"/>
	<path fill="#D0D0D0" d="M789.076,603.777l-0.211-1.576c-1.018,1.294-2.842,1.995-5.119,1.995c-4.7,0-6.172-2.594-6.172-7.466
		v-13.746h3.227v13.464c0,3.402,0.841,4.91,3.854,4.91c2.421,0,3.999-1.403,3.999-4.209v-14.165h3.228v20.793H789.076z"/>
	<path fill="#D0D0D0" d="M803.105,603.918c-5.226,0.526-6.35-1.544-6.35-6.769v-20.442h3.229v20.618
		c0,3.332,0.631,3.821,3.121,3.753V603.918z"/>
	<path fill="#D0D0D0" d="M820.323,590.559v5.645c0,5.855-2.28,7.993-7.293,7.993c-5.016,0-7.295-2.138-7.295-7.993v-5.645
		c0-5.857,2.279-7.994,7.295-7.994C818.043,582.564,820.323,584.701,820.323,590.559z M808.961,596.169
		c0,4.032,1.016,5.189,4.069,5.189c3.014,0,4.033-1.157,4.033-5.189v-5.576c0-4.033-1.02-5.189-4.033-5.189
		c-3.054,0-4.069,1.156-4.069,5.189V596.169z"/>
	<path fill="#D0D0D0" d="M828.005,579.126h-3.296v-3.4h3.296V579.126z M827.969,603.777h-3.226v-20.793h3.226V603.777z"/>
	<path fill="#D0D0D0" d="M835.755,582.984l0.282,2.453c0.839-1.508,2.699-2.841,5.013-2.841c0.352,0,0.736,0.036,1.019,0.071v3.331
		c-0.387-0.068-0.772-0.104-1.3-0.104c-2.559,0-4.594,1.542-4.594,4.944v12.938h-3.226v-20.793H835.755z"/>
</g>
<g>
	<path fill="#D0D0D0" d="M286.928,395.834h9.152v2.946h-9.152v9.29h10.8v2.945h-14.131v-26.718h13.781v2.944h-10.45V395.834z"/>
	<path fill="#D0D0D0" d="M315.438,405.126c0,3.996-2.594,6.311-7.327,6.311c-4.804,0-7.153-2.173-7.153-6.277h3.086
		c0,2.244,1.157,3.506,4.208,3.506c2.594,0,3.927-1.085,3.927-3.328c0-2.596-1.613-3.263-4.488-3.753
		c-3.752-0.631-6.276-1.788-6.276-6.03c0-3.542,2.455-5.751,6.907-5.751c4.699,0,6.803,2.139,6.803,5.994h-3.016
		c-0.07-2.102-1.087-3.225-3.857-3.225c-2.594,0-3.683,1.086-3.683,2.842c0,2.277,1.157,2.909,3.927,3.398
		C312.037,399.409,315.438,400.497,315.438,405.126z"/>
	<path fill="#D0D0D0" d="M322.208,390.225l0.175,1.683c0.912-1.299,2.735-2.104,5.26-2.104c4.243,0,6.312,2.806,6.312,8.03v5.75
		c0,5.644-2.946,7.854-6.626,7.854c-2.035,0-3.752-0.667-4.699-1.79v8.137h-3.226v-27.559H322.208z M322.63,404.037
		c0,3.366,1.753,4.562,4.032,4.562c2.489,0,4.067-1.335,4.067-5.19v-5.646c0-3.471-1.192-5.119-3.997-5.119
		c-2.49,0-4.103,1.367-4.103,4.175V404.037z"/>
	<path fill="#D0D0D0" d="M349.105,409.086c-1.123,1.649-3.086,2.351-5.294,2.351c-3.752,0-6.102-1.929-6.102-5.855
		c0-4.35,2.35-6.38,7.924-6.38c0.947,0,2.385,0.104,3.367,0.244v-2.562c0-3.084-1.157-4.416-3.788-4.416
		c-2.524,0-3.927,0.981-3.927,4.136h-2.945c0-4.733,2.28-6.801,7.013-6.801c4.243,0,6.732,1.788,6.732,6.907v14.306h-2.875
		L349.105,409.086z M349.001,401.9c-0.947-0.141-2.42-0.246-3.262-0.246c-3.541,0-4.803,1.191-4.803,3.645
		c0,2.316,1.192,3.473,3.576,3.473c2.385,0,4.489-1.541,4.489-4.628V401.9z"/>
	<path fill="#D0D0D0" d="M370.638,404.249v0.245c0,4.56-2.104,6.942-7.188,6.942c-4.945,0-7.259-2.277-7.259-8.028v-5.646
		c0-5.714,2.455-7.959,7.363-7.959c4.944,0,7.014,2.279,7.014,6.732v0.349h-3.121v-0.314c0-2.523-0.947-3.893-3.893-3.893
		c-3.015,0-4.137,1.333-4.137,5.05v5.682c0,3.61,0.982,5.19,4.067,5.19c3.051,0,4.033-1.51,4.033-4.069v-0.28H370.638z"/>
	<path fill="#D0D0D0" d="M388.385,405.194c-0.106,4.138-2.069,6.242-6.874,6.242c-5.014,0-7.292-2.244-7.292-7.96v-5.75
		c0-5.4,2.383-7.924,7.223-7.924c4.909,0,7.118,2.419,7.118,7.748v3.858h-11.151v2.313c0,3.508,1.051,4.942,4.067,4.942
		c2.841,0,3.823-1.085,3.893-3.471H388.385z M377.409,397.865v0.983h8.065v-1.157c0-3.4-0.947-5.083-3.998-5.083
		C378.46,392.608,377.409,394.114,377.409,397.865z"/>
	<path fill="#D0D0D0" d="M406.201,408.07v-20.478l-5.61,2.526v-3.228l6.031-2.594h2.875v23.772h4.874v2.945h-13.64v-2.945H406.201z"
		/>
</g>
<g>
	<path fill="#D0D0D0" d="M591.768,155.887h9.153v2.945h-9.153v9.291h10.8v2.946h-14.13v-26.719h13.78v2.945h-10.449V155.887z"/>
	<path fill="#D0D0D0" d="M620.279,165.178c0,3.997-2.594,6.311-7.329,6.311c-4.804,0-7.153-2.174-7.153-6.278h3.086
		c0,2.244,1.157,3.507,4.208,3.507c2.595,0,3.928-1.087,3.928-3.331c0-2.594-1.614-3.261-4.489-3.751
		c-3.752-0.632-6.276-1.789-6.276-6.03c0-3.543,2.453-5.751,6.907-5.751c4.699,0,6.802,2.138,6.802,5.995h-3.014
		c-0.071-2.104-1.088-3.226-3.857-3.226c-2.595,0-3.682,1.086-3.682,2.841c0,2.279,1.158,2.91,3.927,3.4
		C616.877,159.461,620.279,160.549,620.279,165.178z"/>
	<path fill="#D0D0D0" d="M627.05,150.276l0.175,1.683c0.911-1.299,2.735-2.104,5.259-2.104c4.244,0,6.312,2.806,6.312,8.029v5.751
		c0,5.645-2.945,7.854-6.628,7.854c-2.033,0-3.752-0.667-4.698-1.789v8.135h-3.225v-27.559H627.05z M627.47,164.09
		c0,3.365,1.753,4.56,4.032,4.56c2.49,0,4.068-1.334,4.068-5.189v-5.647c0-3.471-1.192-5.119-3.997-5.119
		c-2.49,0-4.103,1.368-4.103,4.173V164.09z"/>
	<path fill="#D0D0D0" d="M653.946,169.138c-1.122,1.65-3.086,2.351-5.294,2.351c-3.752,0-6.101-1.929-6.101-5.856
		c0-4.349,2.349-6.381,7.924-6.381c0.946,0,2.384,0.105,3.366,0.245v-2.561c0-3.085-1.157-4.416-3.787-4.416
		c-2.524,0-3.927,0.982-3.927,4.136h-2.946c0-4.732,2.28-6.8,7.013-6.8c4.242,0,6.731,1.788,6.731,6.907v14.306h-2.875
		L653.946,169.138z M653.841,161.952c-0.947-0.141-2.42-0.246-3.261-0.246c-3.542,0-4.804,1.193-4.804,3.646
		c0,2.316,1.193,3.472,3.577,3.472c2.385,0,4.489-1.543,4.489-4.628V161.952z"/>
	<path fill="#D0D0D0" d="M675.479,164.302v0.244c0,4.559-2.104,6.943-7.188,6.943c-4.944,0-7.258-2.278-7.258-8.028v-5.647
		c0-5.714,2.454-7.958,7.363-7.958c4.944,0,7.012,2.279,7.012,6.733v0.348h-3.12v-0.313c0-2.524-0.946-3.894-3.892-3.894
		c-3.016,0-4.138,1.334-4.138,5.049v5.683c0,3.61,0.982,5.189,4.068,5.189c3.05,0,4.032-1.509,4.032-4.068v-0.28H675.479z"/>
	<path fill="#D0D0D0" d="M693.224,165.248c-0.104,4.137-2.068,6.241-6.872,6.241c-5.015,0-7.294-2.245-7.294-7.961v-5.75
		c0-5.398,2.385-7.923,7.223-7.923c4.909,0,7.119,2.418,7.119,7.748v3.857h-11.151v2.315c0,3.506,1.052,4.943,4.068,4.943
		c2.84,0,3.822-1.087,3.893-3.47H693.224z M682.249,157.918v0.982h8.065v-1.156c0-3.401-0.946-5.083-3.997-5.083
		C683.301,152.661,682.249,154.167,682.249,157.918z"/>
	<path fill="#D0D0D0" d="M709.148,168.123h11.222v2.946h-14.658v-4.488c0-11.011,11.291-7.469,11.291-15.395
		c0-3.366-1.719-4.453-4.347-4.453c-2.387,0-4.28,1.191-4.28,4.909h-2.946c0-5.4,2.771-7.678,7.331-7.678
		c4.979,0,7.536,2.593,7.536,7.081c0,10.1-11.148,7.19-11.148,14.728V168.123z"/>
</g>
</svg>
