<?xml version="1.0" encoding="UTF-8" standalone="no"?>
<!-- Created with Inkscape (http://www.inkscape.org/) -->

<svg
   xmlns:dc="http://purl.org/dc/elements/1.1/"
   xmlns:cc="http://creativecommons.org/ns#"
   xmlns:rdf="http://www.w3.org/1999/02/22-rdf-syntax-ns#"
   xmlns:svg="http://www.w3.org/2000/svg"
   xmlns="http://www.w3.org/2000/svg"
   xmlns:sodipodi="http://sodipodi.sourceforge.net/DTD/sodipodi-0.dtd"
   xmlns:inkscape="http://www.inkscape.org/namespaces/inkscape"
   version="1.1"
   id="svg4485"
   xml:space="preserve"
   width="291.04166mm"
   height="131.97498mm"
   viewBox="0 0 1099.9999 498.80305"
   sodipodi:docname="galerie-ga.svg"
   inkscape:version="0.92.1 r15371"><metadata
     id="metadata4491"><rdf:RDF><cc:Work
         rdf:about=""><dc:format>image/svg+xml</dc:format><dc:type
           rdf:resource="http://purl.org/dc/dcmitype/StillImage" /><dc:title></dc:title></cc:Work></rdf:RDF></metadata><defs
     id="defs4489"><clipPath
       clipPathUnits="userSpaceOnUse"
       id="clipPath4513"><path
         d="M 0,595.28 H 841.89 V 0 H 0 Z"
         id="path4511"
         inkscape:connector-curvature="0" /></clipPath></defs><sodipodi:namedview
     pagecolor="#ffffff"
     bordercolor="#666666"
     borderopacity="1"
     objecttolerance="10"
     gridtolerance="10"
     guidetolerance="10"
     inkscape:pageopacity="0"
     inkscape:pageshadow="2"
     inkscape:window-width="1920"
     inkscape:window-height="1001"
     id="namedview4487"
     showgrid="false"
     inkscape:zoom="1.0180083"
     inkscape:cx="565.49887"
     inkscape:cy="293.71694"
     inkscape:window-x="-9"
     inkscape:window-y="-9"
     inkscape:window-maximized="1"
     inkscape:current-layer="g4493"
     width="1100mm"
     fit-margin-top="0"
     fit-margin-left="0"
     fit-margin-right="0"
     fit-margin-bottom="0"
     showborder="false"
     inkscape:pagecheckerboard="true" /><g
     id="g4493"
     inkscape:groupmode="layer"
     inkscape:label="Objet dynamique vectoriel.ai"
     transform="matrix(1.3333333,0,0,-1.3333333,-0.18153263,641.23183)"><g
       id="g4781"
       transform="matrix(1.0073248,0,0,1.0073248,-11.391877,-5.9477184)"><g
         transform="translate(540.9482,305.1143)"
         id="g4495"><path
           inkscape:connector-curvature="0"
           id="path4497"
           style="fill:#ffffff;fill-opacity:1;fill-rule:nonzero;stroke:none"
           d="m 0,0 v -108.791 -39.029 h -133.705 v 136.903 l -104.149,41.43 4.299,10.805 L -129.685,0 H -7.474 V 153.634 H 0 Z M -289.001,177.717 V 82.215 h -240.003 v -274.88 h 818.001 v 370.382 z" /></g><g
         transform="translate(540.9482,305.1143)"
         id="g4499"><path
           inkscape:connector-curvature="0"
           id="path4501"
           style="fill:none;stroke:#70706f;stroke-width:1;stroke-linecap:butt;stroke-linejoin:miter;stroke-miterlimit:10;stroke-dasharray:none;stroke-opacity:1"
           d="m 0,0 v -108.791 -39.029 h -133.705 v 136.903 l -104.149,41.43 4.299,10.805 L -129.685,0 H -7.474 V 153.634 H 0 Z M -289.001,177.717 V 82.215 h -240.003 v -274.88 h 818.001 v 370.382 z" /></g><g
         transform="translate(636.8828,290.9199)"
         id="g4503"><path
           inkscape:connector-curvature="0"
           id="path4505"
           style="fill:#d0d0d0;fill-opacity:1;fill-rule:nonzero;stroke:none"
           d="M 0,0 H -1.973 V 7.307 H -7.915 V 0 H -9.91 v 15.999 h 1.995 V 9.134 h 5.942 v 6.865 H 0 Z" /></g><g
         id="g4507"><g
           clip-path="url(#clipPath4513)"
           id="g4509"><g
             transform="translate(646.3125,296.3789)"
             id="g4515"><path
               inkscape:connector-curvature="0"
               id="path4517"
               style="fill:#d0d0d0;fill-opacity:1;fill-rule:nonzero;stroke:none"
               d="m 0,0 c -0.566,0.084 -1.448,0.147 -1.952,0.147 -2.12,0 -2.876,-0.714 -2.876,-2.183 0,-1.387 0.713,-2.079 2.14,-2.079 1.428,0 2.688,0.924 2.688,2.771 z m 0.063,-4.304 c -0.671,-0.987 -1.847,-1.407 -3.17,-1.407 -2.247,0 -3.653,1.155 -3.653,3.507 0,2.603 1.406,3.82 4.744,3.82 0.568,0 1.428,-0.062 2.016,-0.146 v 1.533 c 0,1.848 -0.692,2.644 -2.268,2.644 -1.511,0 -2.351,-0.587 -2.351,-2.476 h -1.764 c 0,2.834 1.365,4.072 4.199,4.072 2.541,0 4.032,-1.07 4.032,-4.136 V -5.459 H 0.127 Z" /></g><g
             transform="translate(654.6914,290.8359)"
             id="g4519"><path
               inkscape:connector-curvature="0"
               id="path4521"
               style="fill:#d0d0d0;fill-opacity:1;fill-rule:nonzero;stroke:none"
               d="m 0,0 c -3.128,-0.315 -3.8,0.924 -3.8,4.052 v 12.241 h 1.932 V 3.947 C -1.868,1.952 -1.49,1.659 0,1.7 Z" /></g><g
             transform="translate(660.5508,290.8359)"
             id="g4523"><path
               inkscape:connector-curvature="0"
               id="path4525"
               style="fill:#d0d0d0;fill-opacity:1;fill-rule:nonzero;stroke:none"
               d="m 0,0 c -3.129,-0.315 -3.801,0.924 -3.801,4.052 v 12.241 h 1.932 V 3.947 C -1.869,1.952 -1.49,1.659 0,1.7 Z" /></g><g
             transform="translate(669.8535,295.0986)"
             id="g4527"><path
               inkscape:connector-curvature="0"
               id="path4529"
               style="fill:#d0d0d0;fill-opacity:1;fill-rule:nonzero;stroke:none"
               d="m 0,0 c 0,-2.016 1.051,-2.73 2.415,-2.73 1.491,0 2.436,0.798 2.436,3.107 V 3.758 C 4.851,5.836 4.137,6.823 2.457,6.823 0.967,6.823 0,6.004 0,4.324 Z m -0.252,8.271 0.106,-1.007 c 0.545,0.777 1.637,1.259 3.149,1.259 2.54,0 3.779,-1.679 3.779,-4.807 V 0.272 c 0,-3.379 -1.763,-4.703 -3.968,-4.703 -1.218,0 -2.247,0.4 -2.814,1.072 V -8.23 H -1.932 V 8.271 Z" /></g><g
             transform="translate(680.9629,303.3701)"
             id="g4531"><path
               inkscape:connector-curvature="0"
               id="path4533"
               style="fill:#d0d0d0;fill-opacity:1;fill-rule:nonzero;stroke:none"
               d="m 0,0 0.168,-1.469 c 0.504,0.903 1.617,1.7 3.002,1.7 0.211,0 0.441,-0.02 0.609,-0.042 v -1.994 c -0.23,0.041 -0.462,0.063 -0.777,0.063 -1.532,0 -2.75,-0.924 -2.75,-2.961 V -12.45 H -1.68 V 0 Z" /></g><path
             inkscape:connector-curvature="0"
             id="path4535"
             style="fill:#d0d0d0;fill-opacity:1;fill-rule:nonzero;stroke:none"
             d="m 688.586,290.92 h -1.932 v 12.45 h 1.932 z m 0.021,14.761 h -1.975 v 2.036 h 1.975 z" /><g
             transform="translate(693.248,303.3701)"
             id="g4537"><path
               inkscape:connector-curvature="0"
               id="path4539"
               style="fill:#d0d0d0;fill-opacity:1;fill-rule:nonzero;stroke:none"
               d="m 0,0 0.104,-0.944 c 0.609,0.776 1.638,1.196 2.96,1.196 2.899,0 3.885,-1.553 3.885,-4.472 v -8.23 H 5.018 v 8.062 c 0,2.036 -0.546,2.94 -2.352,2.94 -1.449,0 -2.414,-0.84 -2.414,-2.52 V -12.45 H -1.68 V 0 Z" /></g><g
             transform="translate(711.3691,294.9717)"
             id="g4541"><path
               inkscape:connector-curvature="0"
               id="path4543"
               style="fill:#d0d0d0;fill-opacity:1;fill-rule:nonzero;stroke:none"
               d="m 0,0 v -0.146 c 0,-2.73 -1.26,-4.158 -4.305,-4.158 -2.96,0 -4.345,1.365 -4.345,4.808 v 3.381 c 0,3.422 1.469,4.765 4.409,4.765 2.96,0 4.199,-1.364 4.199,-4.031 V 4.41 H -1.91 v 0.189 c 0,1.511 -0.568,2.331 -2.331,2.331 -1.806,0 -2.478,-0.799 -2.478,-3.024 V 0.504 c 0,-2.162 0.588,-3.108 2.436,-3.108 1.826,0 2.414,0.904 2.414,2.436 V 0 Z" /></g><path
             inkscape:connector-curvature="0"
             id="path4545"
             style="fill:#d0d0d0;fill-opacity:1;fill-rule:nonzero;stroke:none"
             d="m 715.78,290.92 h -1.932 v 12.45 h 1.932 z m 0.021,14.761 h -1.973 v 2.036 h 1.973 z" /><g
             transform="translate(720.6943,295.0986)"
             id="g4547"><path
               inkscape:connector-curvature="0"
               id="path4549"
               style="fill:#d0d0d0;fill-opacity:1;fill-rule:nonzero;stroke:none"
               d="m 0,0 c 0,-2.016 1.05,-2.73 2.415,-2.73 1.49,0 2.436,0.798 2.436,3.107 V 3.758 C 4.851,5.836 4.136,6.823 2.456,6.823 0.966,6.823 0,6.004 0,4.324 Z m -0.252,8.271 0.105,-1.007 c 0.546,0.777 1.638,1.259 3.15,1.259 2.54,0 3.779,-1.679 3.779,-4.807 V 0.272 c 0,-3.379 -1.763,-4.703 -3.969,-4.703 -1.217,0 -2.246,0.4 -2.813,1.072 V -8.23 H -1.932 V 8.271 Z" /></g><g
             transform="translate(736.4844,296.3789)"
             id="g4551"><path
               inkscape:connector-curvature="0"
               id="path4553"
               style="fill:#d0d0d0;fill-opacity:1;fill-rule:nonzero;stroke:none"
               d="m 0,0 c -0.566,0.084 -1.448,0.147 -1.952,0.147 -2.12,0 -2.876,-0.714 -2.876,-2.183 0,-1.387 0.713,-2.079 2.14,-2.079 1.428,0 2.688,0.924 2.688,2.771 z m 0.063,-4.304 c -0.671,-0.987 -1.847,-1.407 -3.17,-1.407 -2.247,0 -3.653,1.155 -3.653,3.507 0,2.603 1.406,3.82 4.744,3.82 0.568,0 1.428,-0.062 2.016,-0.146 v 1.533 c 0,1.848 -0.692,2.644 -2.268,2.644 -1.511,0 -2.351,-0.587 -2.351,-2.476 h -1.764 c 0,2.834 1.365,4.072 4.199,4.072 2.541,0 4.032,-1.07 4.032,-4.136 V -5.459 H 0.127 Z" /></g><g
             transform="translate(744.8643,290.8359)"
             id="g4555"><path
               inkscape:connector-curvature="0"
               id="path4557"
               style="fill:#d0d0d0;fill-opacity:1;fill-rule:nonzero;stroke:none"
               d="m 0,0 c -3.128,-0.315 -3.8,0.924 -3.8,4.052 v 12.241 h 1.932 V 3.947 C -1.868,1.952 -1.491,1.659 0,1.7 Z" /></g><g
             transform="translate(453.4932,133.002)"
             id="g4559"><path
               inkscape:connector-curvature="0"
               id="path4561"
               style="fill:#d0d0d0;fill-opacity:1;fill-rule:nonzero;stroke:none"
               d="m 0,0 v -0.273 c -0.063,-3.129 -1.364,-4.83 -4.787,-4.83 -3.821,0 -5.019,2.016 -5.019,5.669 v 5.102 c 0,3.717 1.24,5.732 5.019,5.732 3.275,0 4.766,-1.658 4.766,-4.808 V 6.403 H -2.12 v 0.232 c 0,1.931 -0.84,2.896 -2.667,2.896 -2.54,0 -2.94,-1.511 -2.94,-3.863 V 0.65 c 0,-2.414 0.357,-3.884 2.94,-3.884 1.974,0 2.624,0.903 2.708,2.939 V 0 Z" /></g><g
             transform="translate(457.5264,132.707)"
             id="g4563"><path
               inkscape:connector-curvature="0"
               id="path4565"
               style="fill:#d0d0d0;fill-opacity:1;fill-rule:nonzero;stroke:none"
               d="m 0,0 c 0,-2.414 0.608,-3.107 2.436,-3.107 1.805,0 2.415,0.693 2.415,3.107 v 3.339 c 0,2.415 -0.61,3.107 -2.415,3.107 C 0.608,6.446 0,5.754 0,3.339 Z m 6.803,3.359 v -3.38 c 0,-3.506 -1.365,-4.787 -4.367,-4.787 -3.003,0 -4.368,1.281 -4.368,4.787 v 3.38 c 0,3.507 1.365,4.787 4.368,4.787 3.002,0 4.367,-1.28 4.367,-4.787" /></g><g
             transform="translate(473.7168,128.1514)"
             id="g4567"><path
               inkscape:connector-curvature="0"
               id="path4569"
               style="fill:#d0d0d0;fill-opacity:1;fill-rule:nonzero;stroke:none"
               d="m 0,0 -0.127,0.944 c -0.608,-0.776 -1.7,-1.196 -3.064,-1.196 -2.815,0 -3.696,1.554 -3.696,4.472 v 8.23 h 1.932 V 4.388 c 0,-2.036 0.504,-2.94 2.309,-2.94 1.449,0 2.394,0.84 2.394,2.52 V 12.45 H 1.68 V 0 Z" /></g><g
             transform="translate(482.1172,128.0674)"
             id="g4571"><path
               inkscape:connector-curvature="0"
               id="path4573"
               style="fill:#d0d0d0;fill-opacity:1;fill-rule:nonzero;stroke:none"
               d="m 0,0 c -3.129,-0.315 -3.801,0.924 -3.801,4.052 v 12.241 h 1.932 V 3.947 C -1.869,1.952 -1.491,1.659 0,1.7 Z" /></g><g
             transform="translate(485.624,132.707)"
             id="g4575"><path
               inkscape:connector-curvature="0"
               id="path4577"
               style="fill:#d0d0d0;fill-opacity:1;fill-rule:nonzero;stroke:none"
               d="m 0,0 c 0,-2.414 0.608,-3.107 2.436,-3.107 1.805,0 2.415,0.693 2.415,3.107 v 3.339 c 0,2.415 -0.61,3.107 -2.415,3.107 C 0.608,6.446 0,5.754 0,3.339 Z m 6.803,3.359 v -3.38 c 0,-3.506 -1.365,-4.787 -4.367,-4.787 -3.003,0 -4.368,1.281 -4.368,4.787 v 3.38 c 0,3.507 1.365,4.787 4.368,4.787 3.002,0 4.367,-1.28 4.367,-4.787" /></g><path
             inkscape:connector-curvature="0"
             id="path4579"
             style="fill:#d0d0d0;fill-opacity:1;fill-rule:nonzero;stroke:none"
             d="m 497.006,128.151 h -1.932 v 12.45 h 1.932 z m 0.021,14.761 h -1.975 v 2.036 h 1.975 z" /><g
             transform="translate(501.668,140.6016)"
             id="g4581"><path
               inkscape:connector-curvature="0"
               id="path4583"
               style="fill:#d0d0d0;fill-opacity:1;fill-rule:nonzero;stroke:none"
               d="m 0,0 0.168,-1.469 c 0.504,0.903 1.617,1.7 3.002,1.7 0.211,0 0.441,-0.02 0.609,-0.042 v -1.994 c -0.23,0.041 -0.462,0.063 -0.777,0.063 -1.532,0 -2.75,-0.924 -2.75,-2.961 V -12.45 H -1.68 V 0 Z" /></g><g
             transform="translate(173.0361,252.665)"
             id="g4585"><path
               inkscape:connector-curvature="0"
               id="path4587"
               style="fill:#d0d0d0;fill-opacity:1;fill-rule:nonzero;stroke:none"
               d="M 0,0 H 5.48 V -1.764 H 0 V -7.327 H 6.467 V -9.091 H -1.995 V 6.908 H 6.257 V 5.145 H 0 Z" /></g><g
             transform="translate(190.1079,247.1016)"
             id="g4589"><path
               inkscape:connector-curvature="0"
               id="path4591"
               style="fill:#d0d0d0;fill-opacity:1;fill-rule:nonzero;stroke:none"
               d="m 0,0 c 0,-2.394 -1.554,-3.779 -4.388,-3.779 -2.877,0 -4.283,1.301 -4.283,3.758 h 1.847 c 0,-1.343 0.693,-2.099 2.52,-2.099 1.554,0 2.351,0.65 2.351,1.994 0,1.554 -0.965,1.953 -2.687,2.246 -2.247,0.379 -3.758,1.071 -3.758,3.611 0,2.122 1.469,3.444 4.136,3.444 2.813,0 4.073,-1.28 4.073,-3.59 h -1.806 c -0.042,1.26 -0.651,1.932 -2.309,1.932 -1.554,0 -2.205,-0.651 -2.205,-1.702 0,-1.364 0.693,-1.742 2.352,-2.036 C -2.037,3.423 0,2.771 0,0" /></g><g
             transform="translate(194.4141,247.7529)"
             id="g4593"><path
               inkscape:connector-curvature="0"
               id="path4595"
               style="fill:#d0d0d0;fill-opacity:1;fill-rule:nonzero;stroke:none"
               d="m 0,0 c 0,-2.016 1.05,-2.73 2.415,-2.73 1.49,0 2.435,0.798 2.435,3.107 V 3.758 C 4.85,5.836 4.136,6.823 2.457,6.823 0.966,6.823 0,6.004 0,4.324 Z m -0.252,8.271 0.105,-1.007 c 0.546,0.777 1.638,1.259 3.149,1.259 2.541,0 3.78,-1.679 3.78,-4.807 V 0.272 c 0,-3.379 -1.764,-4.703 -3.969,-4.703 -1.217,0 -2.246,0.4 -2.813,1.072 V -8.23 H -1.932 V 8.271 Z" /></g><g
             transform="translate(210.2046,249.0332)"
             id="g4597"><path
               inkscape:connector-curvature="0"
               id="path4599"
               style="fill:#d0d0d0;fill-opacity:1;fill-rule:nonzero;stroke:none"
               d="m 0,0 c -0.567,0.084 -1.449,0.147 -1.953,0.147 -2.12,0 -2.876,-0.714 -2.876,-2.183 0,-1.387 0.714,-2.079 2.141,-2.079 1.428,0 2.688,0.924 2.688,2.771 z m 0.063,-4.304 c -0.672,-0.987 -1.848,-1.407 -3.17,-1.407 -2.247,0 -3.654,1.155 -3.654,3.507 0,2.603 1.407,3.82 4.745,3.82 0.567,0 1.428,-0.062 2.016,-0.146 v 1.533 c 0,1.848 -0.693,2.644 -2.268,2.644 -1.511,0 -2.351,-0.587 -2.351,-2.476 h -1.764 c 0,2.834 1.365,4.072 4.199,4.072 2.541,0 4.032,-1.07 4.032,-4.136 V -5.459 H 0.126 Z" /></g><g
             transform="translate(223.1611,247.626)"
             id="g4601"><path
               inkscape:connector-curvature="0"
               id="path4603"
               style="fill:#d0d0d0;fill-opacity:1;fill-rule:nonzero;stroke:none"
               d="m 0,0 v -0.146 c 0,-2.73 -1.26,-4.158 -4.304,-4.158 -2.961,0 -4.346,1.365 -4.346,4.808 v 3.381 c 0,3.422 1.469,4.765 4.409,4.765 2.96,0 4.199,-1.364 4.199,-4.031 V 4.41 h -1.869 v 0.189 c 0,1.511 -0.567,2.331 -2.33,2.331 -1.806,0 -2.478,-0.799 -2.478,-3.024 V 0.504 c 0,-2.162 0.588,-3.108 2.436,-3.108 1.826,0 2.414,0.904 2.414,2.436 V 0 Z" /></g><g
             transform="translate(227.2153,251.4482)"
             id="g4605"><path
               inkscape:connector-curvature="0"
               id="path4607"
               style="fill:#d0d0d0;fill-opacity:1;fill-rule:nonzero;stroke:none"
               d="M 0,0 V -0.588 H 4.829 V 0.104 C 4.829,2.141 4.262,3.148 2.436,3.148 0.63,3.148 0,2.246 0,0 M 6.572,-4.389 C 6.509,-6.866 5.333,-8.126 2.457,-8.126 c -3.003,0 -4.368,1.344 -4.368,4.767 v 3.443 c 0,3.232 1.428,4.744 4.326,4.744 2.939,0 4.262,-1.448 4.262,-4.64 V -2.121 H 0 v -1.386 c 0,-2.099 0.63,-2.96 2.436,-2.96 1.7,0 2.288,0.651 2.33,2.078 z" /></g><g
             transform="translate(244.4556,245.3379)"
             id="g4609"><path
               inkscape:connector-curvature="0"
               id="path4611"
               style="fill:#d0d0d0;fill-opacity:1;fill-rule:nonzero;stroke:none"
               d="M 0,0 V 12.262 L -3.359,10.75 v 1.932 l 3.611,1.553 H 1.974 V 0 H 4.892 V -1.764 H -3.275 V 0 Z" /></g><g
             transform="translate(355.5713,396.3433)"
             id="g4613"><path
               inkscape:connector-curvature="0"
               id="path4615"
               style="fill:#d0d0d0;fill-opacity:1;fill-rule:nonzero;stroke:none"
               d="M 0,0 H 5.48 V -1.764 H 0 V -7.327 H 6.467 V -9.091 H -1.995 V 6.908 H 6.257 V 5.145 H 0 Z" /></g><g
             transform="translate(372.6431,390.7798)"
             id="g4617"><path
               inkscape:connector-curvature="0"
               id="path4619"
               style="fill:#d0d0d0;fill-opacity:1;fill-rule:nonzero;stroke:none"
               d="m 0,0 c 0,-2.394 -1.554,-3.779 -4.388,-3.779 -2.877,0 -4.283,1.301 -4.283,3.758 h 1.847 c 0,-1.343 0.693,-2.099 2.52,-2.099 1.554,0 2.351,0.65 2.351,1.994 0,1.554 -0.965,1.953 -2.687,2.246 -2.247,0.379 -3.758,1.071 -3.758,3.611 0,2.122 1.469,3.444 4.136,3.444 2.813,0 4.073,-1.28 4.073,-3.59 h -1.806 c -0.042,1.26 -0.651,1.932 -2.309,1.932 -1.554,0 -2.205,-0.651 -2.205,-1.702 0,-1.364 0.693,-1.742 2.352,-2.036 C -2.037,3.423 0,2.771 0,0" /></g><g
             transform="translate(376.9492,391.4312)"
             id="g4621"><path
               inkscape:connector-curvature="0"
               id="path4623"
               style="fill:#d0d0d0;fill-opacity:1;fill-rule:nonzero;stroke:none"
               d="m 0,0 c 0,-2.016 1.05,-2.73 2.415,-2.73 1.49,0 2.435,0.798 2.435,3.107 V 3.758 C 4.85,5.836 4.136,6.823 2.457,6.823 0.966,6.823 0,6.004 0,4.324 Z m -0.252,8.271 0.105,-1.007 c 0.546,0.777 1.638,1.259 3.149,1.259 2.541,0 3.78,-1.679 3.78,-4.807 V 0.272 c 0,-3.379 -1.764,-4.703 -3.969,-4.703 -1.217,0 -2.246,0.4 -2.813,1.072 V -8.23 H -1.932 V 8.271 Z" /></g><g
             transform="translate(392.7397,392.7114)"
             id="g4625"><path
               inkscape:connector-curvature="0"
               id="path4627"
               style="fill:#d0d0d0;fill-opacity:1;fill-rule:nonzero;stroke:none"
               d="m 0,0 c -0.567,0.084 -1.449,0.147 -1.953,0.147 -2.12,0 -2.876,-0.714 -2.876,-2.183 0,-1.387 0.714,-2.079 2.141,-2.079 1.428,0 2.688,0.924 2.688,2.771 z m 0.063,-4.304 c -0.672,-0.987 -1.848,-1.407 -3.17,-1.407 -2.247,0 -3.654,1.155 -3.654,3.507 0,2.603 1.407,3.82 4.745,3.82 0.567,0 1.428,-0.062 2.016,-0.146 v 1.533 c 0,1.848 -0.693,2.644 -2.268,2.644 -1.511,0 -2.351,-0.587 -2.351,-2.476 h -1.764 c 0,2.834 1.365,4.072 4.199,4.072 2.541,0 4.032,-1.07 4.032,-4.136 V -5.459 H 0.126 Z" /></g><g
             transform="translate(405.6963,391.3042)"
             id="g4629"><path
               inkscape:connector-curvature="0"
               id="path4631"
               style="fill:#d0d0d0;fill-opacity:1;fill-rule:nonzero;stroke:none"
               d="m 0,0 v -0.146 c 0,-2.73 -1.26,-4.158 -4.304,-4.158 -2.961,0 -4.346,1.365 -4.346,4.808 v 3.381 c 0,3.422 1.469,4.765 4.409,4.765 2.96,0 4.199,-1.364 4.199,-4.031 V 4.41 h -1.869 v 0.189 c 0,1.511 -0.567,2.331 -2.33,2.331 -1.806,0 -2.478,-0.799 -2.478,-3.024 V 0.504 c 0,-2.162 0.588,-3.108 2.436,-3.108 1.826,0 2.414,0.904 2.414,2.436 V 0 Z" /></g><g
             transform="translate(409.7505,395.1265)"
             id="g4633"><path
               inkscape:connector-curvature="0"
               id="path4635"
               style="fill:#d0d0d0;fill-opacity:1;fill-rule:nonzero;stroke:none"
               d="M 0,0 V -0.588 H 4.829 V 0.104 C 4.829,2.141 4.262,3.148 2.436,3.148 0.63,3.148 0,2.246 0,0 M 6.572,-4.389 C 6.509,-6.866 5.333,-8.126 2.457,-8.126 c -3.003,0 -4.368,1.344 -4.368,4.767 v 3.443 c 0,3.232 1.428,4.744 4.326,4.744 2.939,0 4.262,-1.448 4.262,-4.64 V -2.121 H 0 v -1.386 c 0,-2.099 0.63,-2.96 2.436,-2.96 1.7,0 2.288,0.651 2.33,2.078 z" /></g><g
             transform="translate(425.8574,389.0161)"
             id="g4637"><path
               inkscape:connector-curvature="0"
               id="path4639"
               style="fill:#d0d0d0;fill-opacity:1;fill-rule:nonzero;stroke:none"
               d="m 0,0 h 6.719 v -1.764 h -8.778 v 2.688 c 0,6.593 6.762,4.472 6.762,9.218 0,2.015 -1.029,2.666 -2.603,2.666 -1.428,0 -2.563,-0.714 -2.563,-2.94 h -1.764 c 0,3.234 1.66,4.598 4.389,4.598 2.982,0 4.514,-1.553 4.514,-4.24 C 6.676,4.179 0,5.921 0,1.407 Z" /></g></g></g></g></g></svg>