<?xml version="1.0" encoding="utf-8"?>
<!DOCTYPE svg PUBLIC "-//W3C//DTD SVG 1.0//EN" "http://www.w3.org/TR/2001/REC-SVG-20010904/DTD/svg10.dtd">
<svg xmlns="http://www.w3.org/2000/svg" xml:space="preserve" xmlns:xlink="http://www.w3.org/1999/xlink" width="180" height="180" viewBox="0 0 180 180">
<desc></desc>
<rect width="180" height="180" fill="#ffffff" cx="0" cy="0" />
<defs>
<rect id="p" width="4" height="4" />
</defs>
<g fill="#000000">
<use x="16" y="16" xlink:href="#p" />
<use x="20" y="16" xlink:href="#p" />
<use x="24" y="16" xlink:href="#p" />
<use x="28" y="16" xlink:href="#p" />
<use x="32" y="16" xlink:href="#p" />
<use x="36" y="16" xlink:href="#p" />
<use x="40" y="16" xlink:href="#p" />
<use x="48" y="16" xlink:href="#p" />
<use x="52" y="16" xlink:href="#p" />
<use x="60" y="16" xlink:href="#p" />
<use x="64" y="16" xlink:href="#p" />
<use x="72" y="16" xlink:href="#p" />
<use x="76" y="16" xlink:href="#p" />
<use x="92" y="16" xlink:href="#p" />
<use x="96" y="16" xlink:href="#p" />
<use x="104" y="16" xlink:href="#p" />
<use x="116" y="16" xlink:href="#p" />
<use x="120" y="16" xlink:href="#p" />
<use x="128" y="16" xlink:href="#p" />
<use x="136" y="16" xlink:href="#p" />
<use x="140" y="16" xlink:href="#p" />
<use x="144" y="16" xlink:href="#p" />
<use x="148" y="16" xlink:href="#p" />
<use x="152" y="16" xlink:href="#p" />
<use x="156" y="16" xlink:href="#p" />
<use x="160" y="16" xlink:href="#p" />
<use x="16" y="20" xlink:href="#p" />
<use x="40" y="20" xlink:href="#p" />
<use x="48" y="20" xlink:href="#p" />
<use x="60" y="20" xlink:href="#p" />
<use x="64" y="20" xlink:href="#p" />
<use x="68" y="20" xlink:href="#p" />
<use x="72" y="20" xlink:href="#p" />
<use x="76" y="20" xlink:href="#p" />
<use x="80" y="20" xlink:href="#p" />
<use x="100" y="20" xlink:href="#p" />
<use x="104" y="20" xlink:href="#p" />
<use x="108" y="20" xlink:href="#p" />
<use x="116" y="20" xlink:href="#p" />
<use x="124" y="20" xlink:href="#p" />
<use x="128" y="20" xlink:href="#p" />
<use x="136" y="20" xlink:href="#p" />
<use x="160" y="20" xlink:href="#p" />
<use x="16" y="24" xlink:href="#p" />
<use x="24" y="24" xlink:href="#p" />
<use x="28" y="24" xlink:href="#p" />
<use x="32" y="24" xlink:href="#p" />
<use x="40" y="24" xlink:href="#p" />
<use x="48" y="24" xlink:href="#p" />
<use x="52" y="24" xlink:href="#p" />
<use x="56" y="24" xlink:href="#p" />
<use x="60" y="24" xlink:href="#p" />
<use x="64" y="24" xlink:href="#p" />
<use x="84" y="24" xlink:href="#p" />
<use x="92" y="24" xlink:href="#p" />
<use x="108" y="24" xlink:href="#p" />
<use x="116" y="24" xlink:href="#p" />
<use x="120" y="24" xlink:href="#p" />
<use x="124" y="24" xlink:href="#p" />
<use x="136" y="24" xlink:href="#p" />
<use x="144" y="24" xlink:href="#p" />
<use x="148" y="24" xlink:href="#p" />
<use x="152" y="24" xlink:href="#p" />
<use x="160" y="24" xlink:href="#p" />
<use x="16" y="28" xlink:href="#p" />
<use x="24" y="28" xlink:href="#p" />
<use x="28" y="28" xlink:href="#p" />
<use x="32" y="28" xlink:href="#p" />
<use x="40" y="28" xlink:href="#p" />
<use x="60" y="28" xlink:href="#p" />
<use x="64" y="28" xlink:href="#p" />
<use x="68" y="28" xlink:href="#p" />
<use x="72" y="28" xlink:href="#p" />
<use x="76" y="28" xlink:href="#p" />
<use x="80" y="28" xlink:href="#p" />
<use x="84" y="28" xlink:href="#p" />
<use x="92" y="28" xlink:href="#p" />
<use x="108" y="28" xlink:href="#p" />
<use x="112" y="28" xlink:href="#p" />
<use x="116" y="28" xlink:href="#p" />
<use x="136" y="28" xlink:href="#p" />
<use x="144" y="28" xlink:href="#p" />
<use x="148" y="28" xlink:href="#p" />
<use x="152" y="28" xlink:href="#p" />
<use x="160" y="28" xlink:href="#p" />
<use x="16" y="32" xlink:href="#p" />
<use x="24" y="32" xlink:href="#p" />
<use x="28" y="32" xlink:href="#p" />
<use x="32" y="32" xlink:href="#p" />
<use x="40" y="32" xlink:href="#p" />
<use x="56" y="32" xlink:href="#p" />
<use x="72" y="32" xlink:href="#p" />
<use x="76" y="32" xlink:href="#p" />
<use x="80" y="32" xlink:href="#p" />
<use x="84" y="32" xlink:href="#p" />
<use x="88" y="32" xlink:href="#p" />
<use x="92" y="32" xlink:href="#p" />
<use x="96" y="32" xlink:href="#p" />
<use x="100" y="32" xlink:href="#p" />
<use x="112" y="32" xlink:href="#p" />
<use x="124" y="32" xlink:href="#p" />
<use x="136" y="32" xlink:href="#p" />
<use x="144" y="32" xlink:href="#p" />
<use x="148" y="32" xlink:href="#p" />
<use x="152" y="32" xlink:href="#p" />
<use x="160" y="32" xlink:href="#p" />
<use x="16" y="36" xlink:href="#p" />
<use x="40" y="36" xlink:href="#p" />
<use x="48" y="36" xlink:href="#p" />
<use x="52" y="36" xlink:href="#p" />
<use x="56" y="36" xlink:href="#p" />
<use x="60" y="36" xlink:href="#p" />
<use x="84" y="36" xlink:href="#p" />
<use x="88" y="36" xlink:href="#p" />
<use x="92" y="36" xlink:href="#p" />
<use x="104" y="36" xlink:href="#p" />
<use x="108" y="36" xlink:href="#p" />
<use x="124" y="36" xlink:href="#p" />
<use x="136" y="36" xlink:href="#p" />
<use x="160" y="36" xlink:href="#p" />
<use x="16" y="40" xlink:href="#p" />
<use x="20" y="40" xlink:href="#p" />
<use x="24" y="40" xlink:href="#p" />
<use x="28" y="40" xlink:href="#p" />
<use x="32" y="40" xlink:href="#p" />
<use x="36" y="40" xlink:href="#p" />
<use x="40" y="40" xlink:href="#p" />
<use x="48" y="40" xlink:href="#p" />
<use x="56" y="40" xlink:href="#p" />
<use x="64" y="40" xlink:href="#p" />
<use x="72" y="40" xlink:href="#p" />
<use x="80" y="40" xlink:href="#p" />
<use x="88" y="40" xlink:href="#p" />
<use x="96" y="40" xlink:href="#p" />
<use x="104" y="40" xlink:href="#p" />
<use x="112" y="40" xlink:href="#p" />
<use x="120" y="40" xlink:href="#p" />
<use x="128" y="40" xlink:href="#p" />
<use x="136" y="40" xlink:href="#p" />
<use x="140" y="40" xlink:href="#p" />
<use x="144" y="40" xlink:href="#p" />
<use x="148" y="40" xlink:href="#p" />
<use x="152" y="40" xlink:href="#p" />
<use x="156" y="40" xlink:href="#p" />
<use x="160" y="40" xlink:href="#p" />
<use x="48" y="44" xlink:href="#p" />
<use x="52" y="44" xlink:href="#p" />
<use x="56" y="44" xlink:href="#p" />
<use x="68" y="44" xlink:href="#p" />
<use x="72" y="44" xlink:href="#p" />
<use x="76" y="44" xlink:href="#p" />
<use x="92" y="44" xlink:href="#p" />
<use x="104" y="44" xlink:href="#p" />
<use x="108" y="44" xlink:href="#p" />
<use x="112" y="44" xlink:href="#p" />
<use x="120" y="44" xlink:href="#p" />
<use x="24" y="48" xlink:href="#p" />
<use x="28" y="48" xlink:href="#p" />
<use x="32" y="48" xlink:href="#p" />
<use x="40" y="48" xlink:href="#p" />
<use x="48" y="48" xlink:href="#p" />
<use x="56" y="48" xlink:href="#p" />
<use x="60" y="48" xlink:href="#p" />
<use x="72" y="48" xlink:href="#p" />
<use x="88" y="48" xlink:href="#p" />
<use x="92" y="48" xlink:href="#p" />
<use x="96" y="48" xlink:href="#p" />
<use x="104" y="48" xlink:href="#p" />
<use x="108" y="48" xlink:href="#p" />
<use x="112" y="48" xlink:href="#p" />
<use x="132" y="48" xlink:href="#p" />
<use x="136" y="48" xlink:href="#p" />
<use x="140" y="48" xlink:href="#p" />
<use x="152" y="48" xlink:href="#p" />
<use x="156" y="48" xlink:href="#p" />
<use x="160" y="48" xlink:href="#p" />
<use x="24" y="52" xlink:href="#p" />
<use x="32" y="52" xlink:href="#p" />
<use x="36" y="52" xlink:href="#p" />
<use x="52" y="52" xlink:href="#p" />
<use x="56" y="52" xlink:href="#p" />
<use x="64" y="52" xlink:href="#p" />
<use x="84" y="52" xlink:href="#p" />
<use x="88" y="52" xlink:href="#p" />
<use x="96" y="52" xlink:href="#p" />
<use x="100" y="52" xlink:href="#p" />
<use x="104" y="52" xlink:href="#p" />
<use x="108" y="52" xlink:href="#p" />
<use x="120" y="52" xlink:href="#p" />
<use x="124" y="52" xlink:href="#p" />
<use x="128" y="52" xlink:href="#p" />
<use x="136" y="52" xlink:href="#p" />
<use x="148" y="52" xlink:href="#p" />
<use x="152" y="52" xlink:href="#p" />
<use x="156" y="52" xlink:href="#p" />
<use x="16" y="56" xlink:href="#p" />
<use x="20" y="56" xlink:href="#p" />
<use x="28" y="56" xlink:href="#p" />
<use x="32" y="56" xlink:href="#p" />
<use x="36" y="56" xlink:href="#p" />
<use x="40" y="56" xlink:href="#p" />
<use x="44" y="56" xlink:href="#p" />
<use x="60" y="56" xlink:href="#p" />
<use x="64" y="56" xlink:href="#p" />
<use x="68" y="56" xlink:href="#p" />
<use x="76" y="56" xlink:href="#p" />
<use x="84" y="56" xlink:href="#p" />
<use x="88" y="56" xlink:href="#p" />
<use x="100" y="56" xlink:href="#p" />
<use x="104" y="56" xlink:href="#p" />
<use x="112" y="56" xlink:href="#p" />
<use x="116" y="56" xlink:href="#p" />
<use x="120" y="56" xlink:href="#p" />
<use x="132" y="56" xlink:href="#p" />
<use x="152" y="56" xlink:href="#p" />
<use x="156" y="56" xlink:href="#p" />
<use x="28" y="60" xlink:href="#p" />
<use x="32" y="60" xlink:href="#p" />
<use x="44" y="60" xlink:href="#p" />
<use x="56" y="60" xlink:href="#p" />
<use x="60" y="60" xlink:href="#p" />
<use x="72" y="60" xlink:href="#p" />
<use x="76" y="60" xlink:href="#p" />
<use x="80" y="60" xlink:href="#p" />
<use x="84" y="60" xlink:href="#p" />
<use x="100" y="60" xlink:href="#p" />
<use x="104" y="60" xlink:href="#p" />
<use x="108" y="60" xlink:href="#p" />
<use x="128" y="60" xlink:href="#p" />
<use x="136" y="60" xlink:href="#p" />
<use x="144" y="60" xlink:href="#p" />
<use x="148" y="60" xlink:href="#p" />
<use x="156" y="60" xlink:href="#p" />
<use x="160" y="60" xlink:href="#p" />
<use x="16" y="64" xlink:href="#p" />
<use x="24" y="64" xlink:href="#p" />
<use x="32" y="64" xlink:href="#p" />
<use x="36" y="64" xlink:href="#p" />
<use x="40" y="64" xlink:href="#p" />
<use x="60" y="64" xlink:href="#p" />
<use x="68" y="64" xlink:href="#p" />
<use x="88" y="64" xlink:href="#p" />
<use x="100" y="64" xlink:href="#p" />
<use x="112" y="64" xlink:href="#p" />
<use x="132" y="64" xlink:href="#p" />
<use x="148" y="64" xlink:href="#p" />
<use x="152" y="64" xlink:href="#p" />
<use x="160" y="64" xlink:href="#p" />
<use x="16" y="68" xlink:href="#p" />
<use x="24" y="68" xlink:href="#p" />
<use x="36" y="68" xlink:href="#p" />
<use x="48" y="68" xlink:href="#p" />
<use x="52" y="68" xlink:href="#p" />
<use x="76" y="68" xlink:href="#p" />
<use x="92" y="68" xlink:href="#p" />
<use x="100" y="68" xlink:href="#p" />
<use x="108" y="68" xlink:href="#p" />
<use x="120" y="68" xlink:href="#p" />
<use x="124" y="68" xlink:href="#p" />
<use x="128" y="68" xlink:href="#p" />
<use x="136" y="68" xlink:href="#p" />
<use x="140" y="68" xlink:href="#p" />
<use x="148" y="68" xlink:href="#p" />
<use x="160" y="68" xlink:href="#p" />
<use x="20" y="72" xlink:href="#p" />
<use x="28" y="72" xlink:href="#p" />
<use x="40" y="72" xlink:href="#p" />
<use x="56" y="72" xlink:href="#p" />
<use x="68" y="72" xlink:href="#p" />
<use x="72" y="72" xlink:href="#p" />
<use x="76" y="72" xlink:href="#p" />
<use x="104" y="72" xlink:href="#p" />
<use x="108" y="72" xlink:href="#p" />
<use x="112" y="72" xlink:href="#p" />
<use x="116" y="72" xlink:href="#p" />
<use x="124" y="72" xlink:href="#p" />
<use x="128" y="72" xlink:href="#p" />
<use x="140" y="72" xlink:href="#p" />
<use x="144" y="72" xlink:href="#p" />
<use x="152" y="72" xlink:href="#p" />
<use x="160" y="72" xlink:href="#p" />
<use x="16" y="76" xlink:href="#p" />
<use x="20" y="76" xlink:href="#p" />
<use x="32" y="76" xlink:href="#p" />
<use x="36" y="76" xlink:href="#p" />
<use x="48" y="76" xlink:href="#p" />
<use x="52" y="76" xlink:href="#p" />
<use x="56" y="76" xlink:href="#p" />
<use x="60" y="76" xlink:href="#p" />
<use x="64" y="76" xlink:href="#p" />
<use x="68" y="76" xlink:href="#p" />
<use x="72" y="76" xlink:href="#p" />
<use x="76" y="76" xlink:href="#p" />
<use x="80" y="76" xlink:href="#p" />
<use x="84" y="76" xlink:href="#p" />
<use x="96" y="76" xlink:href="#p" />
<use x="104" y="76" xlink:href="#p" />
<use x="108" y="76" xlink:href="#p" />
<use x="112" y="76" xlink:href="#p" />
<use x="116" y="76" xlink:href="#p" />
<use x="120" y="76" xlink:href="#p" />
<use x="132" y="76" xlink:href="#p" />
<use x="156" y="76" xlink:href="#p" />
<use x="16" y="80" xlink:href="#p" />
<use x="20" y="80" xlink:href="#p" />
<use x="24" y="80" xlink:href="#p" />
<use x="36" y="80" xlink:href="#p" />
<use x="40" y="80" xlink:href="#p" />
<use x="48" y="80" xlink:href="#p" />
<use x="64" y="80" xlink:href="#p" />
<use x="88" y="80" xlink:href="#p" />
<use x="92" y="80" xlink:href="#p" />
<use x="96" y="80" xlink:href="#p" />
<use x="100" y="80" xlink:href="#p" />
<use x="112" y="80" xlink:href="#p" />
<use x="124" y="80" xlink:href="#p" />
<use x="128" y="80" xlink:href="#p" />
<use x="132" y="80" xlink:href="#p" />
<use x="136" y="80" xlink:href="#p" />
<use x="140" y="80" xlink:href="#p" />
<use x="144" y="80" xlink:href="#p" />
<use x="148" y="80" xlink:href="#p" />
<use x="152" y="80" xlink:href="#p" />
<use x="160" y="80" xlink:href="#p" />
<use x="28" y="84" xlink:href="#p" />
<use x="32" y="84" xlink:href="#p" />
<use x="36" y="84" xlink:href="#p" />
<use x="52" y="84" xlink:href="#p" />
<use x="68" y="84" xlink:href="#p" />
<use x="80" y="84" xlink:href="#p" />
<use x="88" y="84" xlink:href="#p" />
<use x="92" y="84" xlink:href="#p" />
<use x="100" y="84" xlink:href="#p" />
<use x="108" y="84" xlink:href="#p" />
<use x="112" y="84" xlink:href="#p" />
<use x="124" y="84" xlink:href="#p" />
<use x="128" y="84" xlink:href="#p" />
<use x="132" y="84" xlink:href="#p" />
<use x="144" y="84" xlink:href="#p" />
<use x="148" y="84" xlink:href="#p" />
<use x="152" y="84" xlink:href="#p" />
<use x="160" y="84" xlink:href="#p" />
<use x="24" y="88" xlink:href="#p" />
<use x="28" y="88" xlink:href="#p" />
<use x="32" y="88" xlink:href="#p" />
<use x="40" y="88" xlink:href="#p" />
<use x="44" y="88" xlink:href="#p" />
<use x="52" y="88" xlink:href="#p" />
<use x="56" y="88" xlink:href="#p" />
<use x="68" y="88" xlink:href="#p" />
<use x="72" y="88" xlink:href="#p" />
<use x="76" y="88" xlink:href="#p" />
<use x="80" y="88" xlink:href="#p" />
<use x="88" y="88" xlink:href="#p" />
<use x="104" y="88" xlink:href="#p" />
<use x="124" y="88" xlink:href="#p" />
<use x="128" y="88" xlink:href="#p" />
<use x="136" y="88" xlink:href="#p" />
<use x="140" y="88" xlink:href="#p" />
<use x="144" y="88" xlink:href="#p" />
<use x="152" y="88" xlink:href="#p" />
<use x="20" y="92" xlink:href="#p" />
<use x="24" y="92" xlink:href="#p" />
<use x="36" y="92" xlink:href="#p" />
<use x="48" y="92" xlink:href="#p" />
<use x="52" y="92" xlink:href="#p" />
<use x="56" y="92" xlink:href="#p" />
<use x="76" y="92" xlink:href="#p" />
<use x="80" y="92" xlink:href="#p" />
<use x="96" y="92" xlink:href="#p" />
<use x="100" y="92" xlink:href="#p" />
<use x="104" y="92" xlink:href="#p" />
<use x="108" y="92" xlink:href="#p" />
<use x="116" y="92" xlink:href="#p" />
<use x="120" y="92" xlink:href="#p" />
<use x="132" y="92" xlink:href="#p" />
<use x="148" y="92" xlink:href="#p" />
<use x="152" y="92" xlink:href="#p" />
<use x="16" y="96" xlink:href="#p" />
<use x="20" y="96" xlink:href="#p" />
<use x="24" y="96" xlink:href="#p" />
<use x="28" y="96" xlink:href="#p" />
<use x="40" y="96" xlink:href="#p" />
<use x="48" y="96" xlink:href="#p" />
<use x="56" y="96" xlink:href="#p" />
<use x="60" y="96" xlink:href="#p" />
<use x="76" y="96" xlink:href="#p" />
<use x="88" y="96" xlink:href="#p" />
<use x="96" y="96" xlink:href="#p" />
<use x="116" y="96" xlink:href="#p" />
<use x="120" y="96" xlink:href="#p" />
<use x="124" y="96" xlink:href="#p" />
<use x="132" y="96" xlink:href="#p" />
<use x="136" y="96" xlink:href="#p" />
<use x="156" y="96" xlink:href="#p" />
<use x="160" y="96" xlink:href="#p" />
<use x="24" y="100" xlink:href="#p" />
<use x="28" y="100" xlink:href="#p" />
<use x="32" y="100" xlink:href="#p" />
<use x="44" y="100" xlink:href="#p" />
<use x="56" y="100" xlink:href="#p" />
<use x="60" y="100" xlink:href="#p" />
<use x="64" y="100" xlink:href="#p" />
<use x="68" y="100" xlink:href="#p" />
<use x="92" y="100" xlink:href="#p" />
<use x="96" y="100" xlink:href="#p" />
<use x="100" y="100" xlink:href="#p" />
<use x="112" y="100" xlink:href="#p" />
<use x="116" y="100" xlink:href="#p" />
<use x="136" y="100" xlink:href="#p" />
<use x="148" y="100" xlink:href="#p" />
<use x="152" y="100" xlink:href="#p" />
<use x="160" y="100" xlink:href="#p" />
<use x="16" y="104" xlink:href="#p" />
<use x="32" y="104" xlink:href="#p" />
<use x="36" y="104" xlink:href="#p" />
<use x="40" y="104" xlink:href="#p" />
<use x="52" y="104" xlink:href="#p" />
<use x="56" y="104" xlink:href="#p" />
<use x="80" y="104" xlink:href="#p" />
<use x="88" y="104" xlink:href="#p" />
<use x="92" y="104" xlink:href="#p" />
<use x="96" y="104" xlink:href="#p" />
<use x="104" y="104" xlink:href="#p" />
<use x="108" y="104" xlink:href="#p" />
<use x="116" y="104" xlink:href="#p" />
<use x="120" y="104" xlink:href="#p" />
<use x="124" y="104" xlink:href="#p" />
<use x="132" y="104" xlink:href="#p" />
<use x="152" y="104" xlink:href="#p" />
<use x="156" y="104" xlink:href="#p" />
<use x="160" y="104" xlink:href="#p" />
<use x="28" y="108" xlink:href="#p" />
<use x="36" y="108" xlink:href="#p" />
<use x="48" y="108" xlink:href="#p" />
<use x="76" y="108" xlink:href="#p" />
<use x="92" y="108" xlink:href="#p" />
<use x="96" y="108" xlink:href="#p" />
<use x="100" y="108" xlink:href="#p" />
<use x="104" y="108" xlink:href="#p" />
<use x="108" y="108" xlink:href="#p" />
<use x="112" y="108" xlink:href="#p" />
<use x="116" y="108" xlink:href="#p" />
<use x="124" y="108" xlink:href="#p" />
<use x="144" y="108" xlink:href="#p" />
<use x="148" y="108" xlink:href="#p" />
<use x="156" y="108" xlink:href="#p" />
<use x="16" y="112" xlink:href="#p" />
<use x="20" y="112" xlink:href="#p" />
<use x="24" y="112" xlink:href="#p" />
<use x="36" y="112" xlink:href="#p" />
<use x="40" y="112" xlink:href="#p" />
<use x="48" y="112" xlink:href="#p" />
<use x="60" y="112" xlink:href="#p" />
<use x="72" y="112" xlink:href="#p" />
<use x="76" y="112" xlink:href="#p" />
<use x="88" y="112" xlink:href="#p" />
<use x="108" y="112" xlink:href="#p" />
<use x="112" y="112" xlink:href="#p" />
<use x="120" y="112" xlink:href="#p" />
<use x="124" y="112" xlink:href="#p" />
<use x="128" y="112" xlink:href="#p" />
<use x="132" y="112" xlink:href="#p" />
<use x="148" y="112" xlink:href="#p" />
<use x="152" y="112" xlink:href="#p" />
<use x="160" y="112" xlink:href="#p" />
<use x="16" y="116" xlink:href="#p" />
<use x="20" y="116" xlink:href="#p" />
<use x="24" y="116" xlink:href="#p" />
<use x="32" y="116" xlink:href="#p" />
<use x="44" y="116" xlink:href="#p" />
<use x="56" y="116" xlink:href="#p" />
<use x="60" y="116" xlink:href="#p" />
<use x="64" y="116" xlink:href="#p" />
<use x="68" y="116" xlink:href="#p" />
<use x="80" y="116" xlink:href="#p" />
<use x="96" y="116" xlink:href="#p" />
<use x="100" y="116" xlink:href="#p" />
<use x="124" y="116" xlink:href="#p" />
<use x="136" y="116" xlink:href="#p" />
<use x="144" y="116" xlink:href="#p" />
<use x="148" y="116" xlink:href="#p" />
<use x="160" y="116" xlink:href="#p" />
<use x="16" y="120" xlink:href="#p" />
<use x="24" y="120" xlink:href="#p" />
<use x="28" y="120" xlink:href="#p" />
<use x="36" y="120" xlink:href="#p" />
<use x="40" y="120" xlink:href="#p" />
<use x="44" y="120" xlink:href="#p" />
<use x="48" y="120" xlink:href="#p" />
<use x="52" y="120" xlink:href="#p" />
<use x="56" y="120" xlink:href="#p" />
<use x="64" y="120" xlink:href="#p" />
<use x="76" y="120" xlink:href="#p" />
<use x="92" y="120" xlink:href="#p" />
<use x="104" y="120" xlink:href="#p" />
<use x="108" y="120" xlink:href="#p" />
<use x="112" y="120" xlink:href="#p" />
<use x="120" y="120" xlink:href="#p" />
<use x="124" y="120" xlink:href="#p" />
<use x="128" y="120" xlink:href="#p" />
<use x="132" y="120" xlink:href="#p" />
<use x="140" y="120" xlink:href="#p" />
<use x="16" y="124" xlink:href="#p" />
<use x="24" y="124" xlink:href="#p" />
<use x="28" y="124" xlink:href="#p" />
<use x="44" y="124" xlink:href="#p" />
<use x="48" y="124" xlink:href="#p" />
<use x="52" y="124" xlink:href="#p" />
<use x="56" y="124" xlink:href="#p" />
<use x="60" y="124" xlink:href="#p" />
<use x="88" y="124" xlink:href="#p" />
<use x="92" y="124" xlink:href="#p" />
<use x="96" y="124" xlink:href="#p" />
<use x="104" y="124" xlink:href="#p" />
<use x="108" y="124" xlink:href="#p" />
<use x="116" y="124" xlink:href="#p" />
<use x="120" y="124" xlink:href="#p" />
<use x="124" y="124" xlink:href="#p" />
<use x="136" y="124" xlink:href="#p" />
<use x="144" y="124" xlink:href="#p" />
<use x="152" y="124" xlink:href="#p" />
<use x="156" y="124" xlink:href="#p" />
<use x="16" y="128" xlink:href="#p" />
<use x="24" y="128" xlink:href="#p" />
<use x="28" y="128" xlink:href="#p" />
<use x="40" y="128" xlink:href="#p" />
<use x="44" y="128" xlink:href="#p" />
<use x="48" y="128" xlink:href="#p" />
<use x="56" y="128" xlink:href="#p" />
<use x="72" y="128" xlink:href="#p" />
<use x="88" y="128" xlink:href="#p" />
<use x="92" y="128" xlink:href="#p" />
<use x="96" y="128" xlink:href="#p" />
<use x="108" y="128" xlink:href="#p" />
<use x="116" y="128" xlink:href="#p" />
<use x="124" y="128" xlink:href="#p" />
<use x="128" y="128" xlink:href="#p" />
<use x="132" y="128" xlink:href="#p" />
<use x="136" y="128" xlink:href="#p" />
<use x="140" y="128" xlink:href="#p" />
<use x="144" y="128" xlink:href="#p" />
<use x="148" y="128" xlink:href="#p" />
<use x="152" y="128" xlink:href="#p" />
<use x="160" y="128" xlink:href="#p" />
<use x="48" y="132" xlink:href="#p" />
<use x="52" y="132" xlink:href="#p" />
<use x="56" y="132" xlink:href="#p" />
<use x="64" y="132" xlink:href="#p" />
<use x="76" y="132" xlink:href="#p" />
<use x="84" y="132" xlink:href="#p" />
<use x="88" y="132" xlink:href="#p" />
<use x="92" y="132" xlink:href="#p" />
<use x="104" y="132" xlink:href="#p" />
<use x="108" y="132" xlink:href="#p" />
<use x="112" y="132" xlink:href="#p" />
<use x="128" y="132" xlink:href="#p" />
<use x="144" y="132" xlink:href="#p" />
<use x="148" y="132" xlink:href="#p" />
<use x="156" y="132" xlink:href="#p" />
<use x="160" y="132" xlink:href="#p" />
<use x="16" y="136" xlink:href="#p" />
<use x="20" y="136" xlink:href="#p" />
<use x="24" y="136" xlink:href="#p" />
<use x="28" y="136" xlink:href="#p" />
<use x="32" y="136" xlink:href="#p" />
<use x="36" y="136" xlink:href="#p" />
<use x="40" y="136" xlink:href="#p" />
<use x="56" y="136" xlink:href="#p" />
<use x="64" y="136" xlink:href="#p" />
<use x="68" y="136" xlink:href="#p" />
<use x="72" y="136" xlink:href="#p" />
<use x="84" y="136" xlink:href="#p" />
<use x="92" y="136" xlink:href="#p" />
<use x="100" y="136" xlink:href="#p" />
<use x="104" y="136" xlink:href="#p" />
<use x="116" y="136" xlink:href="#p" />
<use x="124" y="136" xlink:href="#p" />
<use x="128" y="136" xlink:href="#p" />
<use x="136" y="136" xlink:href="#p" />
<use x="144" y="136" xlink:href="#p" />
<use x="156" y="136" xlink:href="#p" />
<use x="16" y="140" xlink:href="#p" />
<use x="40" y="140" xlink:href="#p" />
<use x="56" y="140" xlink:href="#p" />
<use x="60" y="140" xlink:href="#p" />
<use x="68" y="140" xlink:href="#p" />
<use x="72" y="140" xlink:href="#p" />
<use x="76" y="140" xlink:href="#p" />
<use x="84" y="140" xlink:href="#p" />
<use x="100" y="140" xlink:href="#p" />
<use x="104" y="140" xlink:href="#p" />
<use x="112" y="140" xlink:href="#p" />
<use x="120" y="140" xlink:href="#p" />
<use x="124" y="140" xlink:href="#p" />
<use x="128" y="140" xlink:href="#p" />
<use x="144" y="140" xlink:href="#p" />
<use x="148" y="140" xlink:href="#p" />
<use x="160" y="140" xlink:href="#p" />
<use x="16" y="144" xlink:href="#p" />
<use x="24" y="144" xlink:href="#p" />
<use x="28" y="144" xlink:href="#p" />
<use x="32" y="144" xlink:href="#p" />
<use x="40" y="144" xlink:href="#p" />
<use x="48" y="144" xlink:href="#p" />
<use x="52" y="144" xlink:href="#p" />
<use x="60" y="144" xlink:href="#p" />
<use x="72" y="144" xlink:href="#p" />
<use x="96" y="144" xlink:href="#p" />
<use x="108" y="144" xlink:href="#p" />
<use x="120" y="144" xlink:href="#p" />
<use x="124" y="144" xlink:href="#p" />
<use x="128" y="144" xlink:href="#p" />
<use x="132" y="144" xlink:href="#p" />
<use x="136" y="144" xlink:href="#p" />
<use x="140" y="144" xlink:href="#p" />
<use x="144" y="144" xlink:href="#p" />
<use x="148" y="144" xlink:href="#p" />
<use x="160" y="144" xlink:href="#p" />
<use x="16" y="148" xlink:href="#p" />
<use x="24" y="148" xlink:href="#p" />
<use x="28" y="148" xlink:href="#p" />
<use x="32" y="148" xlink:href="#p" />
<use x="40" y="148" xlink:href="#p" />
<use x="48" y="148" xlink:href="#p" />
<use x="52" y="148" xlink:href="#p" />
<use x="60" y="148" xlink:href="#p" />
<use x="72" y="148" xlink:href="#p" />
<use x="80" y="148" xlink:href="#p" />
<use x="84" y="148" xlink:href="#p" />
<use x="88" y="148" xlink:href="#p" />
<use x="96" y="148" xlink:href="#p" />
<use x="104" y="148" xlink:href="#p" />
<use x="112" y="148" xlink:href="#p" />
<use x="116" y="148" xlink:href="#p" />
<use x="128" y="148" xlink:href="#p" />
<use x="148" y="148" xlink:href="#p" />
<use x="160" y="148" xlink:href="#p" />
<use x="16" y="152" xlink:href="#p" />
<use x="24" y="152" xlink:href="#p" />
<use x="28" y="152" xlink:href="#p" />
<use x="32" y="152" xlink:href="#p" />
<use x="40" y="152" xlink:href="#p" />
<use x="48" y="152" xlink:href="#p" />
<use x="76" y="152" xlink:href="#p" />
<use x="96" y="152" xlink:href="#p" />
<use x="100" y="152" xlink:href="#p" />
<use x="124" y="152" xlink:href="#p" />
<use x="128" y="152" xlink:href="#p" />
<use x="132" y="152" xlink:href="#p" />
<use x="136" y="152" xlink:href="#p" />
<use x="140" y="152" xlink:href="#p" />
<use x="144" y="152" xlink:href="#p" />
<use x="152" y="152" xlink:href="#p" />
<use x="160" y="152" xlink:href="#p" />
<use x="16" y="156" xlink:href="#p" />
<use x="40" y="156" xlink:href="#p" />
<use x="60" y="156" xlink:href="#p" />
<use x="64" y="156" xlink:href="#p" />
<use x="68" y="156" xlink:href="#p" />
<use x="76" y="156" xlink:href="#p" />
<use x="84" y="156" xlink:href="#p" />
<use x="88" y="156" xlink:href="#p" />
<use x="92" y="156" xlink:href="#p" />
<use x="96" y="156" xlink:href="#p" />
<use x="112" y="156" xlink:href="#p" />
<use x="116" y="156" xlink:href="#p" />
<use x="120" y="156" xlink:href="#p" />
<use x="140" y="156" xlink:href="#p" />
<use x="144" y="156" xlink:href="#p" />
<use x="148" y="156" xlink:href="#p" />
<use x="152" y="156" xlink:href="#p" />
<use x="16" y="160" xlink:href="#p" />
<use x="20" y="160" xlink:href="#p" />
<use x="24" y="160" xlink:href="#p" />
<use x="28" y="160" xlink:href="#p" />
<use x="32" y="160" xlink:href="#p" />
<use x="36" y="160" xlink:href="#p" />
<use x="40" y="160" xlink:href="#p" />
<use x="60" y="160" xlink:href="#p" />
<use x="68" y="160" xlink:href="#p" />
<use x="72" y="160" xlink:href="#p" />
<use x="76" y="160" xlink:href="#p" />
<use x="84" y="160" xlink:href="#p" />
<use x="88" y="160" xlink:href="#p" />
<use x="100" y="160" xlink:href="#p" />
<use x="112" y="160" xlink:href="#p" />
<use x="124" y="160" xlink:href="#p" />
<use x="128" y="160" xlink:href="#p" />
<use x="132" y="160" xlink:href="#p" />
<use x="144" y="160" xlink:href="#p" />
<use x="148" y="160" xlink:href="#p" />
<use x="152" y="160" xlink:href="#p" />
<use x="160" y="160" xlink:href="#p" />
</g>
</svg>