<?xml version="1.0" encoding="utf-8"?>
<!DOCTYPE svg PUBLIC "-//W3C//DTD SVG 1.0//EN" "http://www.w3.org/TR/2001/REC-SVG-20010904/DTD/svg10.dtd">
<svg xmlns="http://www.w3.org/2000/svg" xml:space="preserve" xmlns:xlink="http://www.w3.org/1999/xlink" width="196" height="196" viewBox="0 0 196 196">
<desc></desc>
<rect width="196" height="196" fill="#ffffff" cx="0" cy="0" />
<defs>
<rect id="p" width="4" height="4" />
</defs>
<g fill="#000000">
<use x="16" y="16" xlink:href="#p" />
<use x="20" y="16" xlink:href="#p" />
<use x="24" y="16" xlink:href="#p" />
<use x="28" y="16" xlink:href="#p" />
<use x="32" y="16" xlink:href="#p" />
<use x="36" y="16" xlink:href="#p" />
<use x="40" y="16" xlink:href="#p" />
<use x="48" y="16" xlink:href="#p" />
<use x="60" y="16" xlink:href="#p" />
<use x="76" y="16" xlink:href="#p" />
<use x="88" y="16" xlink:href="#p" />
<use x="132" y="16" xlink:href="#p" />
<use x="140" y="16" xlink:href="#p" />
<use x="144" y="16" xlink:href="#p" />
<use x="152" y="16" xlink:href="#p" />
<use x="156" y="16" xlink:href="#p" />
<use x="160" y="16" xlink:href="#p" />
<use x="164" y="16" xlink:href="#p" />
<use x="168" y="16" xlink:href="#p" />
<use x="172" y="16" xlink:href="#p" />
<use x="176" y="16" xlink:href="#p" />
<use x="16" y="20" xlink:href="#p" />
<use x="40" y="20" xlink:href="#p" />
<use x="48" y="20" xlink:href="#p" />
<use x="52" y="20" xlink:href="#p" />
<use x="64" y="20" xlink:href="#p" />
<use x="84" y="20" xlink:href="#p" />
<use x="96" y="20" xlink:href="#p" />
<use x="100" y="20" xlink:href="#p" />
<use x="104" y="20" xlink:href="#p" />
<use x="112" y="20" xlink:href="#p" />
<use x="124" y="20" xlink:href="#p" />
<use x="128" y="20" xlink:href="#p" />
<use x="132" y="20" xlink:href="#p" />
<use x="152" y="20" xlink:href="#p" />
<use x="176" y="20" xlink:href="#p" />
<use x="16" y="24" xlink:href="#p" />
<use x="24" y="24" xlink:href="#p" />
<use x="28" y="24" xlink:href="#p" />
<use x="32" y="24" xlink:href="#p" />
<use x="40" y="24" xlink:href="#p" />
<use x="48" y="24" xlink:href="#p" />
<use x="60" y="24" xlink:href="#p" />
<use x="64" y="24" xlink:href="#p" />
<use x="72" y="24" xlink:href="#p" />
<use x="80" y="24" xlink:href="#p" />
<use x="84" y="24" xlink:href="#p" />
<use x="96" y="24" xlink:href="#p" />
<use x="100" y="24" xlink:href="#p" />
<use x="104" y="24" xlink:href="#p" />
<use x="108" y="24" xlink:href="#p" />
<use x="112" y="24" xlink:href="#p" />
<use x="120" y="24" xlink:href="#p" />
<use x="132" y="24" xlink:href="#p" />
<use x="136" y="24" xlink:href="#p" />
<use x="140" y="24" xlink:href="#p" />
<use x="152" y="24" xlink:href="#p" />
<use x="160" y="24" xlink:href="#p" />
<use x="164" y="24" xlink:href="#p" />
<use x="168" y="24" xlink:href="#p" />
<use x="176" y="24" xlink:href="#p" />
<use x="16" y="28" xlink:href="#p" />
<use x="24" y="28" xlink:href="#p" />
<use x="28" y="28" xlink:href="#p" />
<use x="32" y="28" xlink:href="#p" />
<use x="40" y="28" xlink:href="#p" />
<use x="52" y="28" xlink:href="#p" />
<use x="56" y="28" xlink:href="#p" />
<use x="60" y="28" xlink:href="#p" />
<use x="68" y="28" xlink:href="#p" />
<use x="80" y="28" xlink:href="#p" />
<use x="88" y="28" xlink:href="#p" />
<use x="96" y="28" xlink:href="#p" />
<use x="100" y="28" xlink:href="#p" />
<use x="104" y="28" xlink:href="#p" />
<use x="152" y="28" xlink:href="#p" />
<use x="160" y="28" xlink:href="#p" />
<use x="164" y="28" xlink:href="#p" />
<use x="168" y="28" xlink:href="#p" />
<use x="176" y="28" xlink:href="#p" />
<use x="16" y="32" xlink:href="#p" />
<use x="24" y="32" xlink:href="#p" />
<use x="28" y="32" xlink:href="#p" />
<use x="32" y="32" xlink:href="#p" />
<use x="40" y="32" xlink:href="#p" />
<use x="60" y="32" xlink:href="#p" />
<use x="64" y="32" xlink:href="#p" />
<use x="80" y="32" xlink:href="#p" />
<use x="88" y="32" xlink:href="#p" />
<use x="92" y="32" xlink:href="#p" />
<use x="112" y="32" xlink:href="#p" />
<use x="120" y="32" xlink:href="#p" />
<use x="128" y="32" xlink:href="#p" />
<use x="136" y="32" xlink:href="#p" />
<use x="140" y="32" xlink:href="#p" />
<use x="144" y="32" xlink:href="#p" />
<use x="152" y="32" xlink:href="#p" />
<use x="160" y="32" xlink:href="#p" />
<use x="164" y="32" xlink:href="#p" />
<use x="168" y="32" xlink:href="#p" />
<use x="176" y="32" xlink:href="#p" />
<use x="16" y="36" xlink:href="#p" />
<use x="40" y="36" xlink:href="#p" />
<use x="48" y="36" xlink:href="#p" />
<use x="60" y="36" xlink:href="#p" />
<use x="68" y="36" xlink:href="#p" />
<use x="96" y="36" xlink:href="#p" />
<use x="108" y="36" xlink:href="#p" />
<use x="116" y="36" xlink:href="#p" />
<use x="120" y="36" xlink:href="#p" />
<use x="124" y="36" xlink:href="#p" />
<use x="144" y="36" xlink:href="#p" />
<use x="152" y="36" xlink:href="#p" />
<use x="176" y="36" xlink:href="#p" />
<use x="16" y="40" xlink:href="#p" />
<use x="20" y="40" xlink:href="#p" />
<use x="24" y="40" xlink:href="#p" />
<use x="28" y="40" xlink:href="#p" />
<use x="32" y="40" xlink:href="#p" />
<use x="36" y="40" xlink:href="#p" />
<use x="40" y="40" xlink:href="#p" />
<use x="48" y="40" xlink:href="#p" />
<use x="56" y="40" xlink:href="#p" />
<use x="64" y="40" xlink:href="#p" />
<use x="72" y="40" xlink:href="#p" />
<use x="80" y="40" xlink:href="#p" />
<use x="88" y="40" xlink:href="#p" />
<use x="96" y="40" xlink:href="#p" />
<use x="104" y="40" xlink:href="#p" />
<use x="112" y="40" xlink:href="#p" />
<use x="120" y="40" xlink:href="#p" />
<use x="128" y="40" xlink:href="#p" />
<use x="136" y="40" xlink:href="#p" />
<use x="144" y="40" xlink:href="#p" />
<use x="152" y="40" xlink:href="#p" />
<use x="156" y="40" xlink:href="#p" />
<use x="160" y="40" xlink:href="#p" />
<use x="164" y="40" xlink:href="#p" />
<use x="168" y="40" xlink:href="#p" />
<use x="172" y="40" xlink:href="#p" />
<use x="176" y="40" xlink:href="#p" />
<use x="48" y="44" xlink:href="#p" />
<use x="52" y="44" xlink:href="#p" />
<use x="56" y="44" xlink:href="#p" />
<use x="64" y="44" xlink:href="#p" />
<use x="68" y="44" xlink:href="#p" />
<use x="72" y="44" xlink:href="#p" />
<use x="76" y="44" xlink:href="#p" />
<use x="88" y="44" xlink:href="#p" />
<use x="96" y="44" xlink:href="#p" />
<use x="104" y="44" xlink:href="#p" />
<use x="112" y="44" xlink:href="#p" />
<use x="120" y="44" xlink:href="#p" />
<use x="124" y="44" xlink:href="#p" />
<use x="136" y="44" xlink:href="#p" />
<use x="24" y="48" xlink:href="#p" />
<use x="28" y="48" xlink:href="#p" />
<use x="32" y="48" xlink:href="#p" />
<use x="40" y="48" xlink:href="#p" />
<use x="48" y="48" xlink:href="#p" />
<use x="52" y="48" xlink:href="#p" />
<use x="64" y="48" xlink:href="#p" />
<use x="88" y="48" xlink:href="#p" />
<use x="92" y="48" xlink:href="#p" />
<use x="96" y="48" xlink:href="#p" />
<use x="100" y="48" xlink:href="#p" />
<use x="108" y="48" xlink:href="#p" />
<use x="112" y="48" xlink:href="#p" />
<use x="120" y="48" xlink:href="#p" />
<use x="124" y="48" xlink:href="#p" />
<use x="132" y="48" xlink:href="#p" />
<use x="136" y="48" xlink:href="#p" />
<use x="140" y="48" xlink:href="#p" />
<use x="148" y="48" xlink:href="#p" />
<use x="152" y="48" xlink:href="#p" />
<use x="156" y="48" xlink:href="#p" />
<use x="168" y="48" xlink:href="#p" />
<use x="172" y="48" xlink:href="#p" />
<use x="176" y="48" xlink:href="#p" />
<use x="20" y="52" xlink:href="#p" />
<use x="24" y="52" xlink:href="#p" />
<use x="28" y="52" xlink:href="#p" />
<use x="32" y="52" xlink:href="#p" />
<use x="36" y="52" xlink:href="#p" />
<use x="44" y="52" xlink:href="#p" />
<use x="56" y="52" xlink:href="#p" />
<use x="72" y="52" xlink:href="#p" />
<use x="84" y="52" xlink:href="#p" />
<use x="88" y="52" xlink:href="#p" />
<use x="100" y="52" xlink:href="#p" />
<use x="104" y="52" xlink:href="#p" />
<use x="112" y="52" xlink:href="#p" />
<use x="128" y="52" xlink:href="#p" />
<use x="136" y="52" xlink:href="#p" />
<use x="140" y="52" xlink:href="#p" />
<use x="144" y="52" xlink:href="#p" />
<use x="152" y="52" xlink:href="#p" />
<use x="160" y="52" xlink:href="#p" />
<use x="164" y="52" xlink:href="#p" />
<use x="172" y="52" xlink:href="#p" />
<use x="176" y="52" xlink:href="#p" />
<use x="20" y="56" xlink:href="#p" />
<use x="28" y="56" xlink:href="#p" />
<use x="32" y="56" xlink:href="#p" />
<use x="36" y="56" xlink:href="#p" />
<use x="40" y="56" xlink:href="#p" />
<use x="44" y="56" xlink:href="#p" />
<use x="64" y="56" xlink:href="#p" />
<use x="72" y="56" xlink:href="#p" />
<use x="76" y="56" xlink:href="#p" />
<use x="88" y="56" xlink:href="#p" />
<use x="100" y="56" xlink:href="#p" />
<use x="104" y="56" xlink:href="#p" />
<use x="108" y="56" xlink:href="#p" />
<use x="112" y="56" xlink:href="#p" />
<use x="124" y="56" xlink:href="#p" />
<use x="128" y="56" xlink:href="#p" />
<use x="132" y="56" xlink:href="#p" />
<use x="136" y="56" xlink:href="#p" />
<use x="148" y="56" xlink:href="#p" />
<use x="152" y="56" xlink:href="#p" />
<use x="156" y="56" xlink:href="#p" />
<use x="160" y="56" xlink:href="#p" />
<use x="164" y="56" xlink:href="#p" />
<use x="168" y="56" xlink:href="#p" />
<use x="20" y="60" xlink:href="#p" />
<use x="24" y="60" xlink:href="#p" />
<use x="28" y="60" xlink:href="#p" />
<use x="36" y="60" xlink:href="#p" />
<use x="44" y="60" xlink:href="#p" />
<use x="48" y="60" xlink:href="#p" />
<use x="52" y="60" xlink:href="#p" />
<use x="56" y="60" xlink:href="#p" />
<use x="60" y="60" xlink:href="#p" />
<use x="64" y="60" xlink:href="#p" />
<use x="72" y="60" xlink:href="#p" />
<use x="76" y="60" xlink:href="#p" />
<use x="96" y="60" xlink:href="#p" />
<use x="100" y="60" xlink:href="#p" />
<use x="104" y="60" xlink:href="#p" />
<use x="112" y="60" xlink:href="#p" />
<use x="128" y="60" xlink:href="#p" />
<use x="136" y="60" xlink:href="#p" />
<use x="140" y="60" xlink:href="#p" />
<use x="144" y="60" xlink:href="#p" />
<use x="156" y="60" xlink:href="#p" />
<use x="164" y="60" xlink:href="#p" />
<use x="172" y="60" xlink:href="#p" />
<use x="16" y="64" xlink:href="#p" />
<use x="24" y="64" xlink:href="#p" />
<use x="28" y="64" xlink:href="#p" />
<use x="32" y="64" xlink:href="#p" />
<use x="40" y="64" xlink:href="#p" />
<use x="44" y="64" xlink:href="#p" />
<use x="48" y="64" xlink:href="#p" />
<use x="52" y="64" xlink:href="#p" />
<use x="60" y="64" xlink:href="#p" />
<use x="72" y="64" xlink:href="#p" />
<use x="80" y="64" xlink:href="#p" />
<use x="88" y="64" xlink:href="#p" />
<use x="100" y="64" xlink:href="#p" />
<use x="112" y="64" xlink:href="#p" />
<use x="116" y="64" xlink:href="#p" />
<use x="120" y="64" xlink:href="#p" />
<use x="124" y="64" xlink:href="#p" />
<use x="132" y="64" xlink:href="#p" />
<use x="140" y="64" xlink:href="#p" />
<use x="164" y="64" xlink:href="#p" />
<use x="168" y="64" xlink:href="#p" />
<use x="172" y="64" xlink:href="#p" />
<use x="16" y="68" xlink:href="#p" />
<use x="20" y="68" xlink:href="#p" />
<use x="24" y="68" xlink:href="#p" />
<use x="28" y="68" xlink:href="#p" />
<use x="32" y="68" xlink:href="#p" />
<use x="48" y="68" xlink:href="#p" />
<use x="64" y="68" xlink:href="#p" />
<use x="68" y="68" xlink:href="#p" />
<use x="72" y="68" xlink:href="#p" />
<use x="76" y="68" xlink:href="#p" />
<use x="84" y="68" xlink:href="#p" />
<use x="88" y="68" xlink:href="#p" />
<use x="92" y="68" xlink:href="#p" />
<use x="100" y="68" xlink:href="#p" />
<use x="104" y="68" xlink:href="#p" />
<use x="124" y="68" xlink:href="#p" />
<use x="128" y="68" xlink:href="#p" />
<use x="136" y="68" xlink:href="#p" />
<use x="148" y="68" xlink:href="#p" />
<use x="152" y="68" xlink:href="#p" />
<use x="156" y="68" xlink:href="#p" />
<use x="160" y="68" xlink:href="#p" />
<use x="164" y="68" xlink:href="#p" />
<use x="168" y="68" xlink:href="#p" />
<use x="176" y="68" xlink:href="#p" />
<use x="20" y="72" xlink:href="#p" />
<use x="28" y="72" xlink:href="#p" />
<use x="36" y="72" xlink:href="#p" />
<use x="40" y="72" xlink:href="#p" />
<use x="48" y="72" xlink:href="#p" />
<use x="52" y="72" xlink:href="#p" />
<use x="56" y="72" xlink:href="#p" />
<use x="60" y="72" xlink:href="#p" />
<use x="64" y="72" xlink:href="#p" />
<use x="80" y="72" xlink:href="#p" />
<use x="84" y="72" xlink:href="#p" />
<use x="88" y="72" xlink:href="#p" />
<use x="96" y="72" xlink:href="#p" />
<use x="108" y="72" xlink:href="#p" />
<use x="116" y="72" xlink:href="#p" />
<use x="120" y="72" xlink:href="#p" />
<use x="144" y="72" xlink:href="#p" />
<use x="156" y="72" xlink:href="#p" />
<use x="168" y="72" xlink:href="#p" />
<use x="172" y="72" xlink:href="#p" />
<use x="16" y="76" xlink:href="#p" />
<use x="24" y="76" xlink:href="#p" />
<use x="32" y="76" xlink:href="#p" />
<use x="36" y="76" xlink:href="#p" />
<use x="44" y="76" xlink:href="#p" />
<use x="56" y="76" xlink:href="#p" />
<use x="64" y="76" xlink:href="#p" />
<use x="72" y="76" xlink:href="#p" />
<use x="88" y="76" xlink:href="#p" />
<use x="92" y="76" xlink:href="#p" />
<use x="96" y="76" xlink:href="#p" />
<use x="104" y="76" xlink:href="#p" />
<use x="116" y="76" xlink:href="#p" />
<use x="128" y="76" xlink:href="#p" />
<use x="136" y="76" xlink:href="#p" />
<use x="140" y="76" xlink:href="#p" />
<use x="152" y="76" xlink:href="#p" />
<use x="156" y="76" xlink:href="#p" />
<use x="164" y="76" xlink:href="#p" />
<use x="172" y="76" xlink:href="#p" />
<use x="16" y="80" xlink:href="#p" />
<use x="24" y="80" xlink:href="#p" />
<use x="32" y="80" xlink:href="#p" />
<use x="40" y="80" xlink:href="#p" />
<use x="44" y="80" xlink:href="#p" />
<use x="48" y="80" xlink:href="#p" />
<use x="64" y="80" xlink:href="#p" />
<use x="68" y="80" xlink:href="#p" />
<use x="88" y="80" xlink:href="#p" />
<use x="96" y="80" xlink:href="#p" />
<use x="100" y="80" xlink:href="#p" />
<use x="112" y="80" xlink:href="#p" />
<use x="116" y="80" xlink:href="#p" />
<use x="132" y="80" xlink:href="#p" />
<use x="144" y="80" xlink:href="#p" />
<use x="168" y="80" xlink:href="#p" />
<use x="172" y="80" xlink:href="#p" />
<use x="28" y="84" xlink:href="#p" />
<use x="48" y="84" xlink:href="#p" />
<use x="56" y="84" xlink:href="#p" />
<use x="64" y="84" xlink:href="#p" />
<use x="68" y="84" xlink:href="#p" />
<use x="72" y="84" xlink:href="#p" />
<use x="80" y="84" xlink:href="#p" />
<use x="84" y="84" xlink:href="#p" />
<use x="88" y="84" xlink:href="#p" />
<use x="92" y="84" xlink:href="#p" />
<use x="104" y="84" xlink:href="#p" />
<use x="116" y="84" xlink:href="#p" />
<use x="120" y="84" xlink:href="#p" />
<use x="128" y="84" xlink:href="#p" />
<use x="140" y="84" xlink:href="#p" />
<use x="144" y="84" xlink:href="#p" />
<use x="152" y="84" xlink:href="#p" />
<use x="156" y="84" xlink:href="#p" />
<use x="160" y="84" xlink:href="#p" />
<use x="164" y="84" xlink:href="#p" />
<use x="168" y="84" xlink:href="#p" />
<use x="172" y="84" xlink:href="#p" />
<use x="176" y="84" xlink:href="#p" />
<use x="16" y="88" xlink:href="#p" />
<use x="20" y="88" xlink:href="#p" />
<use x="28" y="88" xlink:href="#p" />
<use x="32" y="88" xlink:href="#p" />
<use x="40" y="88" xlink:href="#p" />
<use x="48" y="88" xlink:href="#p" />
<use x="52" y="88" xlink:href="#p" />
<use x="68" y="88" xlink:href="#p" />
<use x="72" y="88" xlink:href="#p" />
<use x="84" y="88" xlink:href="#p" />
<use x="88" y="88" xlink:href="#p" />
<use x="96" y="88" xlink:href="#p" />
<use x="100" y="88" xlink:href="#p" />
<use x="104" y="88" xlink:href="#p" />
<use x="108" y="88" xlink:href="#p" />
<use x="124" y="88" xlink:href="#p" />
<use x="136" y="88" xlink:href="#p" />
<use x="144" y="88" xlink:href="#p" />
<use x="164" y="88" xlink:href="#p" />
<use x="168" y="88" xlink:href="#p" />
<use x="172" y="88" xlink:href="#p" />
<use x="16" y="92" xlink:href="#p" />
<use x="20" y="92" xlink:href="#p" />
<use x="28" y="92" xlink:href="#p" />
<use x="32" y="92" xlink:href="#p" />
<use x="36" y="92" xlink:href="#p" />
<use x="44" y="92" xlink:href="#p" />
<use x="48" y="92" xlink:href="#p" />
<use x="56" y="92" xlink:href="#p" />
<use x="80" y="92" xlink:href="#p" />
<use x="88" y="92" xlink:href="#p" />
<use x="92" y="92" xlink:href="#p" />
<use x="96" y="92" xlink:href="#p" />
<use x="104" y="92" xlink:href="#p" />
<use x="112" y="92" xlink:href="#p" />
<use x="120" y="92" xlink:href="#p" />
<use x="156" y="92" xlink:href="#p" />
<use x="164" y="92" xlink:href="#p" />
<use x="16" y="96" xlink:href="#p" />
<use x="20" y="96" xlink:href="#p" />
<use x="24" y="96" xlink:href="#p" />
<use x="28" y="96" xlink:href="#p" />
<use x="32" y="96" xlink:href="#p" />
<use x="40" y="96" xlink:href="#p" />
<use x="60" y="96" xlink:href="#p" />
<use x="64" y="96" xlink:href="#p" />
<use x="68" y="96" xlink:href="#p" />
<use x="80" y="96" xlink:href="#p" />
<use x="104" y="96" xlink:href="#p" />
<use x="108" y="96" xlink:href="#p" />
<use x="112" y="96" xlink:href="#p" />
<use x="116" y="96" xlink:href="#p" />
<use x="124" y="96" xlink:href="#p" />
<use x="128" y="96" xlink:href="#p" />
<use x="136" y="96" xlink:href="#p" />
<use x="168" y="96" xlink:href="#p" />
<use x="16" y="100" xlink:href="#p" />
<use x="20" y="100" xlink:href="#p" />
<use x="28" y="100" xlink:href="#p" />
<use x="32" y="100" xlink:href="#p" />
<use x="44" y="100" xlink:href="#p" />
<use x="48" y="100" xlink:href="#p" />
<use x="72" y="100" xlink:href="#p" />
<use x="76" y="100" xlink:href="#p" />
<use x="80" y="100" xlink:href="#p" />
<use x="92" y="100" xlink:href="#p" />
<use x="96" y="100" xlink:href="#p" />
<use x="108" y="100" xlink:href="#p" />
<use x="116" y="100" xlink:href="#p" />
<use x="128" y="100" xlink:href="#p" />
<use x="132" y="100" xlink:href="#p" />
<use x="140" y="100" xlink:href="#p" />
<use x="144" y="100" xlink:href="#p" />
<use x="152" y="100" xlink:href="#p" />
<use x="156" y="100" xlink:href="#p" />
<use x="160" y="100" xlink:href="#p" />
<use x="168" y="100" xlink:href="#p" />
<use x="176" y="100" xlink:href="#p" />
<use x="16" y="104" xlink:href="#p" />
<use x="24" y="104" xlink:href="#p" />
<use x="32" y="104" xlink:href="#p" />
<use x="40" y="104" xlink:href="#p" />
<use x="52" y="104" xlink:href="#p" />
<use x="56" y="104" xlink:href="#p" />
<use x="64" y="104" xlink:href="#p" />
<use x="76" y="104" xlink:href="#p" />
<use x="104" y="104" xlink:href="#p" />
<use x="112" y="104" xlink:href="#p" />
<use x="120" y="104" xlink:href="#p" />
<use x="124" y="104" xlink:href="#p" />
<use x="148" y="104" xlink:href="#p" />
<use x="156" y="104" xlink:href="#p" />
<use x="20" y="108" xlink:href="#p" />
<use x="32" y="108" xlink:href="#p" />
<use x="44" y="108" xlink:href="#p" />
<use x="60" y="108" xlink:href="#p" />
<use x="64" y="108" xlink:href="#p" />
<use x="84" y="108" xlink:href="#p" />
<use x="92" y="108" xlink:href="#p" />
<use x="96" y="108" xlink:href="#p" />
<use x="100" y="108" xlink:href="#p" />
<use x="104" y="108" xlink:href="#p" />
<use x="112" y="108" xlink:href="#p" />
<use x="116" y="108" xlink:href="#p" />
<use x="128" y="108" xlink:href="#p" />
<use x="156" y="108" xlink:href="#p" />
<use x="164" y="108" xlink:href="#p" />
<use x="172" y="108" xlink:href="#p" />
<use x="16" y="112" xlink:href="#p" />
<use x="20" y="112" xlink:href="#p" />
<use x="24" y="112" xlink:href="#p" />
<use x="28" y="112" xlink:href="#p" />
<use x="32" y="112" xlink:href="#p" />
<use x="36" y="112" xlink:href="#p" />
<use x="40" y="112" xlink:href="#p" />
<use x="44" y="112" xlink:href="#p" />
<use x="52" y="112" xlink:href="#p" />
<use x="56" y="112" xlink:href="#p" />
<use x="64" y="112" xlink:href="#p" />
<use x="68" y="112" xlink:href="#p" />
<use x="76" y="112" xlink:href="#p" />
<use x="88" y="112" xlink:href="#p" />
<use x="100" y="112" xlink:href="#p" />
<use x="112" y="112" xlink:href="#p" />
<use x="116" y="112" xlink:href="#p" />
<use x="132" y="112" xlink:href="#p" />
<use x="140" y="112" xlink:href="#p" />
<use x="148" y="112" xlink:href="#p" />
<use x="156" y="112" xlink:href="#p" />
<use x="164" y="112" xlink:href="#p" />
<use x="168" y="112" xlink:href="#p" />
<use x="20" y="116" xlink:href="#p" />
<use x="24" y="116" xlink:href="#p" />
<use x="28" y="116" xlink:href="#p" />
<use x="36" y="116" xlink:href="#p" />
<use x="44" y="116" xlink:href="#p" />
<use x="48" y="116" xlink:href="#p" />
<use x="52" y="116" xlink:href="#p" />
<use x="56" y="116" xlink:href="#p" />
<use x="64" y="116" xlink:href="#p" />
<use x="68" y="116" xlink:href="#p" />
<use x="72" y="116" xlink:href="#p" />
<use x="80" y="116" xlink:href="#p" />
<use x="84" y="116" xlink:href="#p" />
<use x="100" y="116" xlink:href="#p" />
<use x="128" y="116" xlink:href="#p" />
<use x="132" y="116" xlink:href="#p" />
<use x="136" y="116" xlink:href="#p" />
<use x="140" y="116" xlink:href="#p" />
<use x="144" y="116" xlink:href="#p" />
<use x="148" y="116" xlink:href="#p" />
<use x="152" y="116" xlink:href="#p" />
<use x="160" y="116" xlink:href="#p" />
<use x="164" y="116" xlink:href="#p" />
<use x="176" y="116" xlink:href="#p" />
<use x="20" y="120" xlink:href="#p" />
<use x="40" y="120" xlink:href="#p" />
<use x="48" y="120" xlink:href="#p" />
<use x="56" y="120" xlink:href="#p" />
<use x="60" y="120" xlink:href="#p" />
<use x="68" y="120" xlink:href="#p" />
<use x="76" y="120" xlink:href="#p" />
<use x="80" y="120" xlink:href="#p" />
<use x="84" y="120" xlink:href="#p" />
<use x="88" y="120" xlink:href="#p" />
<use x="92" y="120" xlink:href="#p" />
<use x="104" y="120" xlink:href="#p" />
<use x="108" y="120" xlink:href="#p" />
<use x="112" y="120" xlink:href="#p" />
<use x="120" y="120" xlink:href="#p" />
<use x="124" y="120" xlink:href="#p" />
<use x="136" y="120" xlink:href="#p" />
<use x="144" y="120" xlink:href="#p" />
<use x="160" y="120" xlink:href="#p" />
<use x="164" y="120" xlink:href="#p" />
<use x="168" y="120" xlink:href="#p" />
<use x="16" y="124" xlink:href="#p" />
<use x="20" y="124" xlink:href="#p" />
<use x="24" y="124" xlink:href="#p" />
<use x="36" y="124" xlink:href="#p" />
<use x="48" y="124" xlink:href="#p" />
<use x="52" y="124" xlink:href="#p" />
<use x="60" y="124" xlink:href="#p" />
<use x="64" y="124" xlink:href="#p" />
<use x="76" y="124" xlink:href="#p" />
<use x="80" y="124" xlink:href="#p" />
<use x="92" y="124" xlink:href="#p" />
<use x="96" y="124" xlink:href="#p" />
<use x="100" y="124" xlink:href="#p" />
<use x="104" y="124" xlink:href="#p" />
<use x="108" y="124" xlink:href="#p" />
<use x="112" y="124" xlink:href="#p" />
<use x="128" y="124" xlink:href="#p" />
<use x="148" y="124" xlink:href="#p" />
<use x="156" y="124" xlink:href="#p" />
<use x="160" y="124" xlink:href="#p" />
<use x="164" y="124" xlink:href="#p" />
<use x="172" y="124" xlink:href="#p" />
<use x="176" y="124" xlink:href="#p" />
<use x="16" y="128" xlink:href="#p" />
<use x="20" y="128" xlink:href="#p" />
<use x="24" y="128" xlink:href="#p" />
<use x="28" y="128" xlink:href="#p" />
<use x="32" y="128" xlink:href="#p" />
<use x="36" y="128" xlink:href="#p" />
<use x="40" y="128" xlink:href="#p" />
<use x="48" y="128" xlink:href="#p" />
<use x="56" y="128" xlink:href="#p" />
<use x="60" y="128" xlink:href="#p" />
<use x="68" y="128" xlink:href="#p" />
<use x="76" y="128" xlink:href="#p" />
<use x="88" y="128" xlink:href="#p" />
<use x="92" y="128" xlink:href="#p" />
<use x="96" y="128" xlink:href="#p" />
<use x="108" y="128" xlink:href="#p" />
<use x="112" y="128" xlink:href="#p" />
<use x="120" y="128" xlink:href="#p" />
<use x="128" y="128" xlink:href="#p" />
<use x="132" y="128" xlink:href="#p" />
<use x="144" y="128" xlink:href="#p" />
<use x="148" y="128" xlink:href="#p" />
<use x="164" y="128" xlink:href="#p" />
<use x="168" y="128" xlink:href="#p" />
<use x="176" y="128" xlink:href="#p" />
<use x="16" y="132" xlink:href="#p" />
<use x="20" y="132" xlink:href="#p" />
<use x="24" y="132" xlink:href="#p" />
<use x="28" y="132" xlink:href="#p" />
<use x="32" y="132" xlink:href="#p" />
<use x="52" y="132" xlink:href="#p" />
<use x="60" y="132" xlink:href="#p" />
<use x="68" y="132" xlink:href="#p" />
<use x="72" y="132" xlink:href="#p" />
<use x="88" y="132" xlink:href="#p" />
<use x="92" y="132" xlink:href="#p" />
<use x="104" y="132" xlink:href="#p" />
<use x="108" y="132" xlink:href="#p" />
<use x="116" y="132" xlink:href="#p" />
<use x="120" y="132" xlink:href="#p" />
<use x="124" y="132" xlink:href="#p" />
<use x="140" y="132" xlink:href="#p" />
<use x="152" y="132" xlink:href="#p" />
<use x="160" y="132" xlink:href="#p" />
<use x="164" y="132" xlink:href="#p" />
<use x="176" y="132" xlink:href="#p" />
<use x="16" y="136" xlink:href="#p" />
<use x="24" y="136" xlink:href="#p" />
<use x="32" y="136" xlink:href="#p" />
<use x="40" y="136" xlink:href="#p" />
<use x="52" y="136" xlink:href="#p" />
<use x="56" y="136" xlink:href="#p" />
<use x="60" y="136" xlink:href="#p" />
<use x="68" y="136" xlink:href="#p" />
<use x="72" y="136" xlink:href="#p" />
<use x="76" y="136" xlink:href="#p" />
<use x="80" y="136" xlink:href="#p" />
<use x="84" y="136" xlink:href="#p" />
<use x="92" y="136" xlink:href="#p" />
<use x="96" y="136" xlink:href="#p" />
<use x="108" y="136" xlink:href="#p" />
<use x="112" y="136" xlink:href="#p" />
<use x="124" y="136" xlink:href="#p" />
<use x="128" y="136" xlink:href="#p" />
<use x="132" y="136" xlink:href="#p" />
<use x="144" y="136" xlink:href="#p" />
<use x="148" y="136" xlink:href="#p" />
<use x="168" y="136" xlink:href="#p" />
<use x="16" y="140" xlink:href="#p" />
<use x="32" y="140" xlink:href="#p" />
<use x="44" y="140" xlink:href="#p" />
<use x="48" y="140" xlink:href="#p" />
<use x="52" y="140" xlink:href="#p" />
<use x="60" y="140" xlink:href="#p" />
<use x="76" y="140" xlink:href="#p" />
<use x="80" y="140" xlink:href="#p" />
<use x="88" y="140" xlink:href="#p" />
<use x="92" y="140" xlink:href="#p" />
<use x="100" y="140" xlink:href="#p" />
<use x="104" y="140" xlink:href="#p" />
<use x="116" y="140" xlink:href="#p" />
<use x="124" y="140" xlink:href="#p" />
<use x="144" y="140" xlink:href="#p" />
<use x="148" y="140" xlink:href="#p" />
<use x="152" y="140" xlink:href="#p" />
<use x="160" y="140" xlink:href="#p" />
<use x="164" y="140" xlink:href="#p" />
<use x="172" y="140" xlink:href="#p" />
<use x="16" y="144" xlink:href="#p" />
<use x="24" y="144" xlink:href="#p" />
<use x="28" y="144" xlink:href="#p" />
<use x="36" y="144" xlink:href="#p" />
<use x="40" y="144" xlink:href="#p" />
<use x="48" y="144" xlink:href="#p" />
<use x="52" y="144" xlink:href="#p" />
<use x="64" y="144" xlink:href="#p" />
<use x="72" y="144" xlink:href="#p" />
<use x="76" y="144" xlink:href="#p" />
<use x="88" y="144" xlink:href="#p" />
<use x="96" y="144" xlink:href="#p" />
<use x="100" y="144" xlink:href="#p" />
<use x="104" y="144" xlink:href="#p" />
<use x="108" y="144" xlink:href="#p" />
<use x="112" y="144" xlink:href="#p" />
<use x="120" y="144" xlink:href="#p" />
<use x="124" y="144" xlink:href="#p" />
<use x="128" y="144" xlink:href="#p" />
<use x="132" y="144" xlink:href="#p" />
<use x="140" y="144" xlink:href="#p" />
<use x="144" y="144" xlink:href="#p" />
<use x="148" y="144" xlink:href="#p" />
<use x="152" y="144" xlink:href="#p" />
<use x="156" y="144" xlink:href="#p" />
<use x="160" y="144" xlink:href="#p" />
<use x="164" y="144" xlink:href="#p" />
<use x="168" y="144" xlink:href="#p" />
<use x="172" y="144" xlink:href="#p" />
<use x="176" y="144" xlink:href="#p" />
<use x="48" y="148" xlink:href="#p" />
<use x="52" y="148" xlink:href="#p" />
<use x="56" y="148" xlink:href="#p" />
<use x="64" y="148" xlink:href="#p" />
<use x="68" y="148" xlink:href="#p" />
<use x="72" y="148" xlink:href="#p" />
<use x="88" y="148" xlink:href="#p" />
<use x="92" y="148" xlink:href="#p" />
<use x="104" y="148" xlink:href="#p" />
<use x="112" y="148" xlink:href="#p" />
<use x="120" y="148" xlink:href="#p" />
<use x="128" y="148" xlink:href="#p" />
<use x="132" y="148" xlink:href="#p" />
<use x="136" y="148" xlink:href="#p" />
<use x="144" y="148" xlink:href="#p" />
<use x="160" y="148" xlink:href="#p" />
<use x="168" y="148" xlink:href="#p" />
<use x="172" y="148" xlink:href="#p" />
<use x="176" y="148" xlink:href="#p" />
<use x="16" y="152" xlink:href="#p" />
<use x="20" y="152" xlink:href="#p" />
<use x="24" y="152" xlink:href="#p" />
<use x="28" y="152" xlink:href="#p" />
<use x="32" y="152" xlink:href="#p" />
<use x="36" y="152" xlink:href="#p" />
<use x="40" y="152" xlink:href="#p" />
<use x="52" y="152" xlink:href="#p" />
<use x="60" y="152" xlink:href="#p" />
<use x="68" y="152" xlink:href="#p" />
<use x="72" y="152" xlink:href="#p" />
<use x="80" y="152" xlink:href="#p" />
<use x="84" y="152" xlink:href="#p" />
<use x="112" y="152" xlink:href="#p" />
<use x="124" y="152" xlink:href="#p" />
<use x="128" y="152" xlink:href="#p" />
<use x="132" y="152" xlink:href="#p" />
<use x="140" y="152" xlink:href="#p" />
<use x="144" y="152" xlink:href="#p" />
<use x="152" y="152" xlink:href="#p" />
<use x="160" y="152" xlink:href="#p" />
<use x="164" y="152" xlink:href="#p" />
<use x="16" y="156" xlink:href="#p" />
<use x="40" y="156" xlink:href="#p" />
<use x="52" y="156" xlink:href="#p" />
<use x="56" y="156" xlink:href="#p" />
<use x="64" y="156" xlink:href="#p" />
<use x="72" y="156" xlink:href="#p" />
<use x="80" y="156" xlink:href="#p" />
<use x="84" y="156" xlink:href="#p" />
<use x="88" y="156" xlink:href="#p" />
<use x="92" y="156" xlink:href="#p" />
<use x="100" y="156" xlink:href="#p" />
<use x="128" y="156" xlink:href="#p" />
<use x="132" y="156" xlink:href="#p" />
<use x="136" y="156" xlink:href="#p" />
<use x="140" y="156" xlink:href="#p" />
<use x="144" y="156" xlink:href="#p" />
<use x="160" y="156" xlink:href="#p" />
<use x="164" y="156" xlink:href="#p" />
<use x="172" y="156" xlink:href="#p" />
<use x="16" y="160" xlink:href="#p" />
<use x="24" y="160" xlink:href="#p" />
<use x="28" y="160" xlink:href="#p" />
<use x="32" y="160" xlink:href="#p" />
<use x="40" y="160" xlink:href="#p" />
<use x="48" y="160" xlink:href="#p" />
<use x="60" y="160" xlink:href="#p" />
<use x="76" y="160" xlink:href="#p" />
<use x="84" y="160" xlink:href="#p" />
<use x="88" y="160" xlink:href="#p" />
<use x="100" y="160" xlink:href="#p" />
<use x="104" y="160" xlink:href="#p" />
<use x="108" y="160" xlink:href="#p" />
<use x="112" y="160" xlink:href="#p" />
<use x="116" y="160" xlink:href="#p" />
<use x="120" y="160" xlink:href="#p" />
<use x="144" y="160" xlink:href="#p" />
<use x="148" y="160" xlink:href="#p" />
<use x="152" y="160" xlink:href="#p" />
<use x="156" y="160" xlink:href="#p" />
<use x="160" y="160" xlink:href="#p" />
<use x="168" y="160" xlink:href="#p" />
<use x="176" y="160" xlink:href="#p" />
<use x="16" y="164" xlink:href="#p" />
<use x="24" y="164" xlink:href="#p" />
<use x="28" y="164" xlink:href="#p" />
<use x="32" y="164" xlink:href="#p" />
<use x="40" y="164" xlink:href="#p" />
<use x="48" y="164" xlink:href="#p" />
<use x="56" y="164" xlink:href="#p" />
<use x="60" y="164" xlink:href="#p" />
<use x="80" y="164" xlink:href="#p" />
<use x="108" y="164" xlink:href="#p" />
<use x="116" y="164" xlink:href="#p" />
<use x="136" y="164" xlink:href="#p" />
<use x="140" y="164" xlink:href="#p" />
<use x="144" y="164" xlink:href="#p" />
<use x="176" y="164" xlink:href="#p" />
<use x="16" y="168" xlink:href="#p" />
<use x="24" y="168" xlink:href="#p" />
<use x="28" y="168" xlink:href="#p" />
<use x="32" y="168" xlink:href="#p" />
<use x="40" y="168" xlink:href="#p" />
<use x="48" y="168" xlink:href="#p" />
<use x="56" y="168" xlink:href="#p" />
<use x="68" y="168" xlink:href="#p" />
<use x="76" y="168" xlink:href="#p" />
<use x="84" y="168" xlink:href="#p" />
<use x="92" y="168" xlink:href="#p" />
<use x="116" y="168" xlink:href="#p" />
<use x="124" y="168" xlink:href="#p" />
<use x="136" y="168" xlink:href="#p" />
<use x="140" y="168" xlink:href="#p" />
<use x="144" y="168" xlink:href="#p" />
<use x="148" y="168" xlink:href="#p" />
<use x="152" y="168" xlink:href="#p" />
<use x="160" y="168" xlink:href="#p" />
<use x="172" y="168" xlink:href="#p" />
<use x="16" y="172" xlink:href="#p" />
<use x="40" y="172" xlink:href="#p" />
<use x="52" y="172" xlink:href="#p" />
<use x="56" y="172" xlink:href="#p" />
<use x="64" y="172" xlink:href="#p" />
<use x="68" y="172" xlink:href="#p" />
<use x="72" y="172" xlink:href="#p" />
<use x="76" y="172" xlink:href="#p" />
<use x="84" y="172" xlink:href="#p" />
<use x="92" y="172" xlink:href="#p" />
<use x="96" y="172" xlink:href="#p" />
<use x="108" y="172" xlink:href="#p" />
<use x="112" y="172" xlink:href="#p" />
<use x="120" y="172" xlink:href="#p" />
<use x="124" y="172" xlink:href="#p" />
<use x="128" y="172" xlink:href="#p" />
<use x="144" y="172" xlink:href="#p" />
<use x="148" y="172" xlink:href="#p" />
<use x="152" y="172" xlink:href="#p" />
<use x="156" y="172" xlink:href="#p" />
<use x="172" y="172" xlink:href="#p" />
<use x="16" y="176" xlink:href="#p" />
<use x="20" y="176" xlink:href="#p" />
<use x="24" y="176" xlink:href="#p" />
<use x="28" y="176" xlink:href="#p" />
<use x="32" y="176" xlink:href="#p" />
<use x="36" y="176" xlink:href="#p" />
<use x="40" y="176" xlink:href="#p" />
<use x="72" y="176" xlink:href="#p" />
<use x="96" y="176" xlink:href="#p" />
<use x="120" y="176" xlink:href="#p" />
<use x="124" y="176" xlink:href="#p" />
<use x="132" y="176" xlink:href="#p" />
<use x="140" y="176" xlink:href="#p" />
<use x="148" y="176" xlink:href="#p" />
<use x="156" y="176" xlink:href="#p" />
<use x="160" y="176" xlink:href="#p" />
<use x="164" y="176" xlink:href="#p" />
<use x="168" y="176" xlink:href="#p" />
</g>
</svg>